<?xml version="1.0" encoding="UTF-8"?>
<svg width="302px" height="446px" viewBox="0 0 302 446" version="1.1" xmlns="http://www.w3.org/2000/svg" xmlns:xlink="http://www.w3.org/1999/xlink">
    <!-- Generator: Sketch 49.3 (51167) - http://www.bohemiancoding.com/sketch -->
    <title>cup</title>
    <desc>Created with Sketch.</desc>
    <defs>
        <rect id="path-1" x="182.804613" y="0.88758435" width="21" height="324.906356"></rect>
        <path d="M66,112 L234,112 C242.836556,112 250,119.163444 250,128 L250,132 L50,132 L50,128 C50,119.163444 57.163444,112 66,112 Z" id="path-2"></path>
        <path d="M41,133 L259,133 C267.836556,133 275,140.163444 275,149 L275,153 L25,153 L25,149 C25,140.163444 32.163444,133 41,133 Z" id="path-3"></path>
        <rect id="path-4" x="0" y="154" width="300" height="30" rx="8"></rect>
        <path d="M38,185 L250,185 L230.568187,437.613572 C230.247573,441.781549 226.772041,445 222.591751,445 L77.0757486,445 C73.0353883,445 69.6292115,441.987344 69.1356605,437.977242 L38,185 Z" id="path-5"></path>
    </defs>
    <g id="Characters" stroke="none" stroke-width="1" fill="none" fill-rule="evenodd">
        <g id="Cup" transform="translate(-103.000000, -11.000000)">
            <g id="cup" transform="translate(104.000000, 11.000000)">
                <g id="Rectangle-6" transform="translate(193.304613, 163.340763) rotate(7.000000) translate(-193.304613, -163.340763) ">
                    <use fill="#E8E8E8" fill-rule="evenodd" xlink:href="#path-1"></use>
                    <rect stroke="#000000" stroke-width="1" x="183.304613" y="1.38758435" width="20" height="323.906356"></rect>
                </g>
                <g id="Rectangle">
                    <use fill="#FFB400" fill-rule="evenodd" xlink:href="#path-2"></use>
                    <path stroke="#000000" stroke-width="1" d="M66,111.5 L234,111.5 C243.112698,111.5 250.5,118.887302 250.5,128 L250.5,132.5 L49.5,132.5 L49.5,128 C49.5,118.887302 56.8873016,111.5 66,111.5 Z"></path>
                </g>
                <g id="Rectangle-Copy">
                    <use fill="#FFB400" fill-rule="evenodd" xlink:href="#path-3"></use>
                    <path stroke="#000000" stroke-width="1" d="M41,132.5 L259,132.5 C268.112698,132.5 275.5,139.887302 275.5,149 L275.5,153.5 L24.5,153.5 L24.5,149 C24.5,139.887302 31.8873016,132.5 41,132.5 Z"></path>
                </g>
                <g id="Rectangle-2">
                    <use fill="#5BCD00" fill-rule="evenodd" xlink:href="#path-4"></use>
                    <rect stroke="#000000" stroke-width="1" x="-0.5" y="153.5" width="301" height="31" rx="8"></rect>
                </g>
                <g id="Rectangle-3">
                    <use fill="#5BCD00" fill-rule="evenodd" xlink:href="#path-5"></use>
                    <path stroke="#000000" stroke-width="1" d="M37.4346888,184.5 L250.539939,184.5 L231.066714,437.65192 C230.726062,442.080396 227.03331,445.5 222.591751,445.5 L77.0757486,445.5 C72.7828658,445.5 69.163803,442.299053 68.639405,438.038319 L37.4346888,184.5 Z"></path>
                </g>
                <g id="face" transform="translate(86.000000, 214.000000)">
                    <path d="M23.3746198,3.23118887 C23.3746198,3.23118887 23.3746198,5.23118887 23.3746198,9.23118887 L0.374619808,9.23118887 C2.44012507,5.23118887 10.1067917,3.23118887 23.3746198,3.23118887 Z" id="Rectangle-4" fill="#000000" transform="translate(11.874620, 6.231189) rotate(-17.000000) translate(-11.874620, -6.231189) "></path>
                    <path d="M119.37462,3.23118887 C119.37462,3.23118887 119.37462,5.23118887 119.37462,9.23118887 L96.3746198,9.23118887 C98.4401251,5.23118887 106.106792,3.23118887 119.37462,3.23118887 Z" id="Rectangle-4-Copy" fill="#000000" transform="translate(107.874620, 6.231189) scale(-1, 1) rotate(-17.000000) translate(-107.874620, -6.231189) "></path>
                    <ellipse id="Oval-2" stroke="#000000" fill="#FFFFFF" transform="translate(84.100264, 81.760118) rotate(8.000000) translate(-84.100264, -81.760118) " cx="84.1002636" cy="81.7601184" rx="22" ry="31"></ellipse>
                    <ellipse id="Oval" stroke="#000000" fill="#FFFFFF" transform="translate(39.500000, 77.500000) rotate(-10.000000) translate(-39.500000, -77.500000) " cx="39.5" cy="77.5" rx="24.5" ry="38.5"></ellipse>
                    <ellipse id="Oval-3" fill="#000000" transform="translate(50.354973, 88.435917) rotate(-12.000000) translate(-50.354973, -88.435917) " cx="50.3549729" cy="88.4359165" rx="5.5" ry="9.5"></ellipse>
                    <ellipse id="Oval-3-Copy" fill="#000000" transform="translate(74.744310, 89.630084) rotate(10.000000) translate(-74.744310, -89.630084) " cx="74.7443098" cy="89.6300844" rx="4.42892009" ry="7.87063735"></ellipse>
                    <g id="Group" transform="translate(46.000000, 82.000000)" fill="#FFFFFF">
                        <ellipse id="Oval-4" cx="1.5" cy="2.5" rx="1.5" ry="2.5"></ellipse>
                        <path d="M1.27827965,6.92515385 C1.8305644,6.92515385 2.10032725,5.99436273 2.10032725,5.1659356 C1.6525337,5.5893809 0.786657138,5.66534572 0.157124863,5.0712477 C0.157124863,5.89967482 0.725994904,6.92515385 1.27827965,6.92515385 Z" id="Oval-4-Copy" transform="translate(1.128726, 5.998201) rotate(10.000000) translate(-1.128726, -5.998201) "></path>
                    </g>
                    <g id="Group-Copy" transform="translate(73.998156, 87.214896) rotate(10.000000) translate(-73.998156, -87.214896) translate(72.498156, 84.214896)" fill="#FFFFFF">
                        <ellipse id="Oval-4" cx="1.5" cy="1.93740727" rx="1.5" ry="1.93740727"></ellipse>
                        <path d="M1.27827965,5.36673738 C1.8305644,5.36673738 2.10032725,4.64540878 2.10032725,4.00340849 C1.6525337,4.33156289 0.786657138,4.39043281 0.157124863,3.93002887 C0.157124863,4.57202917 0.725994904,5.36673738 1.27827965,5.36673738 Z" id="Oval-4-Copy" transform="translate(1.128726, 4.648383) rotate(10.000000) translate(-1.128726, -4.648383) "></path>
                    </g>
                    <path d="M2,158.566256 C9.28180657,170.796057 36.8030106,183.025858 62.9971355,183.025858 C103.763589,179.454315 113.159405,158.566256 120.282954,142 C120.282954,143.813031 85.3695478,171.634475 58.4725884,170.796057 C29.0136683,169.87778 2,161.782658 2,158.566256 Z" id="Rectangle-5" fill="#000000"></path>
                </g>
            </g>
        </g>
    </g>
</svg>