<?xml version="1.0" encoding="UTF-8"?>
<svg width="398px" height="88px" viewBox="0 0 398 88" version="1.1" xmlns="http://www.w3.org/2000/svg" xmlns:xlink="http://www.w3.org/1999/xlink">
    <!-- Generator: Sketch 49.3 (51167) - http://www.bohemiancoding.com/sketch -->
    <title>credit</title>
    <desc>Created with Sketch.</desc>
    <defs>
        <rect id="path-1" x="0" y="0" width="390" height="80" rx="4"></rect>
        <rect id="path-2" x="23.877551" y="0.397260274" width="2.78571429" height="42.109589"></rect>
        <path d="M9.14816886,14.6986301 L29.453872,14.6986301 C30.9896775,14.6986301 32.2346939,15.9436465 32.2346939,17.4794521 L6.36734694,17.4794521 L6.36734694,17.4794521 C6.36734694,15.9436465 7.61236332,14.6986301 9.14816886,14.6986301 Z" id="path-3"></path>
        <path d="M5.96449539,17.4794521 L33.0355046,17.4794521 C34.5713102,17.4794521 35.8163265,18.7244684 35.8163265,20.260274 L3.18367347,20.260274 L3.18367347,20.260274 C3.18367347,18.7244684 4.42868985,17.4794521 5.96449539,17.4794521 Z" id="path-4"></path>
        <rect id="path-5" x="0" y="20.260274" width="39" height="3.57534247" rx="1.78767123"></rect>
        <path d="M4.7755102,24.2328767 L32.2346939,24.2328767 L29.870919,55.0447729 C29.7429969,56.7122424 28.3526634,58 26.6802942,58 L11.7515216,58 C10.13498,58 8.77230519,56.7943612 8.57535913,55.1898615 L4.7755102,24.2328767 Z" id="path-6"></path>
    </defs>
    <g id="Screens" stroke="none" stroke-width="1" fill="none" fill-rule="evenodd">
        <g id="Start" transform="translate(-211.000000, -458.000000)">
            <g id="buttons" transform="translate(215.000000, 362.000000)">
                <g id="credit" transform="translate(0.000000, 100.000000)">
                    <g id="bg">
                        <use fill="#5A5A5A" fill-rule="evenodd" xlink:href="#path-1"></use>
                        <rect stroke="#343434" stroke-width="4" x="-2" y="-2" width="394" height="84" rx="4"></rect>
                    </g>
                    <path d="M165.22,33.04 C164.379996,32.4799972 163.560004,31.9800022 162.76,31.54 C161.959996,31.0999978 161.140004,30.7100017 160.3,30.37 C159.459996,30.0299983 158.550005,29.7100015 157.57,29.41 C156.589995,29.1099985 155.500006,28.8000016 154.3,28.48 C152.859993,29.2000036 151.470007,30.2799928 150.13,31.72 C148.789993,33.1600072 147.610005,34.7199916 146.59,36.4 C145.569995,38.0800084 144.750003,39.7799914 144.13,41.5 C143.509997,43.2200086 143.2,44.7199936 143.2,46 C143.2,46.4400022 143.409998,46.9699969 143.83,47.59 C144.250002,48.2100031 144.799997,48.8099971 145.48,49.39 C146.160003,49.9700029 146.959995,50.4699979 147.88,50.89 C148.800005,51.3100021 149.739995,51.52 150.7,51.52 C151.900006,51.52 153.53999,51.1700035 155.62,50.47 C157.70001,49.7699965 159.879989,48.8400058 162.16,47.68 L163.12,49.3 C161.919994,50.0200036 160.620007,50.7299965 159.22,51.43 C157.819993,52.1300035 156.410007,52.7599972 154.99,53.32 C153.569993,53.8800028 152.200007,54.3299983 150.88,54.67 C149.559993,55.0100017 148.380005,55.18 147.34,55.18 C145.859993,55.18 144.440007,54.8700031 143.08,54.25 C141.719993,53.6299969 140.510005,52.8400048 139.45,51.88 C138.389995,50.9199952 137.550003,49.840006 136.93,48.64 C136.309997,47.439994 136,46.2600058 136,45.1 C136,43.299991 136.499995,41.2400116 137.5,38.92 C138.500005,36.5999884 139.95999,34.4200102 141.88,32.38 C143.80001,30.3399898 146.169986,28.620007 148.99,27.22 C151.810014,25.819993 155.059982,25.12 158.74,25.12 C160.020006,25.12 161.529991,25.4699965 163.27,26.17 C165.010009,26.8700035 166.959989,27.9399928 169.12,29.38 L165.22,33.04 Z M205.9,31.48 C205.9,33.5200102 204.720012,35.3999914 202.36,37.12 C199.999988,38.8400086 196.540023,40.2199948 191.98,41.26 C192.140001,41.9000032 192.579996,42.719995 193.3,43.72 C194.020004,44.720005 194.879995,45.7599946 195.88,46.84 C196.880005,47.9200054 197.949994,48.959995 199.09,49.96 C200.230006,50.960005 201.319995,51.7799968 202.36,52.42 L196.06,55.6 C194.659993,54.4799944 193.330006,53.2300069 192.07,51.85 C190.809994,50.4699931 189.710005,49.1100067 188.77,47.77 C187.829995,46.4299933 187.080003,45.2100055 186.52,44.11 C185.959997,43.0099945 185.68,42.2000026 185.68,41.68 C185.68,41.1199972 186.019997,40.740001 186.7,40.54 C189.180012,39.8599966 191.199992,39.2000032 192.76,38.56 C194.320008,37.9199968 195.549995,37.2500035 196.45,36.55 C197.350004,35.8499965 197.959998,35.0900041 198.28,34.27 C198.600002,33.4499959 198.76,32.5200052 198.76,31.48 C198.76,30.9999976 198.610001,30.6200014 198.31,30.34 C198.009998,30.0599986 197.360005,29.7400018 196.36,29.38 C193.119984,30.9000076 190.400011,32.7999886 188.2,35.08 C185.999989,37.3600114 184.440005,39.999985 183.52,43 C183.079998,44.3600068 182.550003,45.8999914 181.93,47.62 C181.309997,49.3400086 180.600004,51.2199898 179.8,53.26 C179.439998,54.1800046 179.100002,54.7999984 178.78,55.12 C178.459998,55.4400016 178.100002,55.6 177.7,55.6 C177.259998,55.6 176.750003,55.4200018 176.17,55.06 C175.589997,54.6999982 175.050002,54.2700025 174.55,53.77 C174.049997,53.2699975 173.620002,52.7300029 173.26,52.15 C172.899998,51.5699971 172.72,51.0600022 172.72,50.62 C172.72,50.2999984 172.779999,49.9800016 172.9,49.66 C173.020001,49.3399984 173.279998,48.8600032 173.68,48.22 C174.080002,47.5799968 174.679996,46.7100055 175.48,45.61 C176.280004,44.5099945 177.359993,43.0400092 178.72,41.2 C179.000001,40.8399982 179.249999,40.4000026 179.47,39.88 C179.690001,39.3599974 179.879999,38.5900051 180.04,37.57 C180.200001,36.5499949 180.32,35.2000084 180.4,33.52 C180.48,31.8399916 180.52,29.6600134 180.52,26.98 L188.2,25.48 C187.999999,26.8400068 187.750001,28.1599936 187.45,29.44 C187.149999,30.7200064 186.840002,31.9799938 186.52,33.22 C189.080013,30.5399866 191.249991,28.5800062 193.03,27.34 C194.810009,26.0999938 196.459992,25.48 197.98,25.48 C198.940005,25.48 199.889995,25.679998 200.83,26.08 C201.770005,26.480002 202.619996,26.979997 203.38,27.58 C204.140004,28.180003 204.749998,28.8299965 205.21,29.53 C205.670002,30.2300035 205.9,30.879997 205.9,31.48 Z M241.96,30.58 C239.079986,30.2599984 236.480012,30.0700003 234.16,30.01 C231.839988,29.9499997 229.780009,29.9599996 227.98,30.04 C226.939995,31.7200084 226.010004,33.3399922 225.19,34.9 C224.369996,36.4600078 223.560004,38.039992 222.76,39.64 C223.280003,39.2799982 223.709998,38.9800012 224.05,38.74 C224.390002,38.4999988 224.739998,38.2200016 225.1,37.9 C227.860014,37.699999 230.21999,37.5600004 232.18,37.48 C234.14001,37.3999996 235.419997,37.36 236.02,37.36 L239.08,37.36 L235.66,41.98 C233.139987,41.6199982 230.810011,41.4100003 228.67,41.35 C226.529989,41.2899997 224.320011,41.3999986 222.04,41.68 C221.559998,42.7600054 221.150002,43.7599954 220.81,44.68 C220.469998,45.6000046 220.120002,46.6199944 219.76,47.74 L215.56,50.56 C219.880022,49.959997 223.819982,49.6300003 227.38,49.57 C230.940018,49.5099997 234.239985,49.6399984 237.28,49.96 L234.82,55.06 C231.179982,54.4999972 227.290021,54.2299999 223.15,54.25 C219.009979,54.2700001 215.060019,54.5599972 211.3,55.12 C211.740002,54.1999954 212.109998,53.4200032 212.41,52.78 C212.710001,52.1399968 212.949999,51.5900023 213.13,51.13 C213.310001,50.6699977 213.449999,50.2700017 213.55,49.93 C213.650001,49.5899983 213.74,49.2800014 213.82,49 C214.580004,45.8399842 215.399996,42.960013 216.28,40.36 C217.160004,37.759987 218.139995,35.3800108 219.22,33.22 C220.100004,32.819998 220.959996,32.420002 221.8,32.02 C222.640004,31.619998 223.759993,31.0600036 225.16,30.34 C224.359996,30.3800002 223.290007,30.4799992 221.95,30.64 C220.609993,30.8000008 219.080009,30.9999988 217.36,31.24 L220.3,26.98 C223.260015,26.5399978 225.919988,26.2100011 228.28,25.99 C230.640012,25.7699989 232.78999,25.6200004 234.73,25.54 C236.67001,25.4599996 238.449992,25.4399998 240.07,25.48 C241.690008,25.5200002 243.219993,25.5999994 244.66,25.72 L241.96,30.58 Z M279.76,41.98 C279.76,43.98001 279.240005,45.7899919 278.2,47.41 C277.159995,49.0300081 275.900007,50.4099943 274.42,51.55 C272.939993,52.6900057 271.410008,53.5699969 269.83,54.19 C268.249992,54.8100031 266.920005,55.12 265.84,55.12 C264.359993,55.12 261.60002,53.9000122 257.56,51.46 C256.399994,52.5000052 255.460004,53.2899973 254.74,53.83 C254.019996,54.3700027 253.400003,54.6899995 252.88,54.79 C252.359997,54.8900005 251.880002,54.8000014 251.44,54.52 C250.999998,54.2399986 250.500003,53.800003 249.94,53.2 C248.979995,52.199995 248.440001,51.4600024 248.32,50.98 C248.199999,50.4999976 248.299998,49.9800028 248.62,49.42 C251.300013,44.819977 253.509991,40.4800204 255.25,36.4 C256.990009,32.3199796 258.139997,28.5200176 258.7,25 L263.26,26.86 L269.8,25 C271.84001,27.3200116 273.509993,29.3199916 274.81,31 C276.110006,32.6800084 277.119996,34.1599936 277.84,35.44 C278.560004,36.7200064 279.059999,37.8799948 279.34,38.92 C279.620001,39.9600052 279.76,40.979995 279.76,41.98 Z M273.04,42.52 C273.04,40.719991 272.310007,38.6100121 270.85,36.19 C269.389993,33.7699879 267.340013,31.1200144 264.7,28.24 C263.899996,31.5200164 262.810007,34.8899827 261.43,38.35 C260.049993,41.8100173 258.40001,45.1199842 256.48,48.28 C257.880007,49.080004 259.339992,49.6999978 260.86,50.14 C262.380008,50.5800022 263.619995,50.8 264.58,50.8 C265.580005,50.8 266.579995,50.5900021 267.58,50.17 C268.580005,49.7499979 269.489996,49.1700037 270.31,48.43 C271.130004,47.6899963 271.789998,46.8100051 272.29,45.79 C272.790003,44.7699949 273.04,43.6800058 273.04,42.52 Z M300.52,27.64 C300.52,29.4000088 300.380001,31.1899909 300.1,33.01 C299.819999,34.8300091 299.340003,36.8199892 298.66,38.98 C297.979997,41.1400108 297.080006,43.5499867 295.96,46.21 C294.839994,48.8700133 293.440008,51.9199828 291.76,55.36 L286.3,53.98 C288.620012,48.9399748 290.349994,44.3700205 291.49,40.27 C292.630006,36.1699795 293.2,32.7400138 293.2,29.98 C293.2,29.4999976 293.18,29.0200024 293.14,28.54 C293.1,28.0599976 293.04,27.5800024 292.96,27.1 L300.34,25.3 C300.460001,26.100004 300.52,26.8799962 300.52,27.64 Z M333.52,30.22 C331.679991,30.620002 329.850009,30.919999 328.03,31.12 C326.209991,31.320001 324.160011,31.4599996 321.88,31.54 L325.3,32.86 C324.259995,34.7800096 323.380004,36.7499899 322.66,38.77 C321.939996,40.7900101 321.390002,42.7399906 321.01,44.62 C320.629998,46.5000094 320.42,48.239992 320.38,49.84 C320.34,51.440008 320.479998,52.7799946 320.8,53.86 L312.7,55.54 C312.74,53.6599906 312.969998,51.6700105 313.39,49.57 C313.810002,47.4699895 314.349997,45.3700105 315.01,43.27 C315.670003,41.1699895 316.409996,39.12001 317.23,37.12 C318.050004,35.11999 318.879996,33.2800084 319.72,31.6 C317.79999,31.6 316.000008,31.5100009 314.32,31.33 C312.639992,31.1499991 310.900009,30.8800018 309.1,30.52 L311.56,26.02 C314.240013,26.7000034 317.229983,27.0699997 320.53,27.13 C323.830016,27.1900003 327.759977,26.920003 332.32,26.32 C333.000003,26.2399996 333.459999,26.1700003 333.7,26.11 C333.940001,26.0499997 334.139999,26.02 334.3,26.02 L335.5,26.02 L333.52,30.22 Z" id="CREDIT" fill="#FFFFFF"></path>
                    <g id="cup" transform="translate(68.000000, 5.000000)">
                        <g id="Rectangle-6" transform="translate(25.270408, 21.452055) rotate(7.000000) translate(-25.270408, -21.452055) ">
                            <use fill="#E8E8E8" fill-rule="evenodd" xlink:href="#path-2"></use>
                            <rect stroke="#000000" stroke-width="0.5" x="24.127551" y="0.647260274" width="2.28571429" height="41.609589"></rect>
                        </g>
                        <g id="Rectangle">
                            <use fill="#FFB400" fill-rule="evenodd" xlink:href="#path-3"></use>
                            <path stroke="#000000" stroke-width="0.5" d="M9.14816886,14.4486301 L29.453872,14.4486301 C31.1277487,14.4486301 32.4846939,15.8055753 32.4846939,17.4794521 L32.4846939,17.7294521 L6.11734694,17.7294521 L6.11734694,17.4794521 C6.11734694,15.8055753 7.47429213,14.4486301 9.14816886,14.4486301 Z"></path>
                        </g>
                        <g id="Rectangle-Copy">
                            <use fill="#FFB400" fill-rule="evenodd" xlink:href="#path-4"></use>
                            <path stroke="#000000" stroke-width="0.5" d="M5.96449539,17.2294521 L33.0355046,17.2294521 C34.7093813,17.2294521 36.0663265,18.5863972 36.0663265,20.260274 L36.0663265,20.510274 L2.93367347,20.510274 L2.93367347,20.260274 C2.93367347,18.5863972 4.29061866,17.2294521 5.96449539,17.2294521 Z"></path>
                        </g>
                        <g id="Rectangle-2">
                            <use fill="#5BCD00" fill-rule="evenodd" xlink:href="#path-5"></use>
                            <rect stroke="#000000" stroke-width="0.5" x="-0.25" y="20.010274" width="39.5" height="4.07534247" rx="2.03767123"></rect>
                        </g>
                        <g id="Rectangle-3">
                            <use fill="#5BCD00" fill-rule="evenodd" xlink:href="#path-6"></use>
                            <path stroke="#000000" stroke-width="0.5" d="M4.4929474,23.9828767 L32.5046075,23.9828767 L30.1201865,55.0638958 C29.9822705,56.8616364 28.4833172,58.25 26.6802942,58.25 L11.7515216,58.25 C10.0086877,58.25 8.53955391,56.9501706 8.32722144,55.2203195 L4.4929474,23.9828767 Z"></path>
                        </g>
                        <g id="face" transform="translate(10.744898, 27.808219)">
                            <path d="M3.39617109,0.712384196 C3.39617109,0.712384196 3.39617109,0.972611526 3.39617109,1.49306619 L0.446010856,1.49306619 C0.710948747,0.972611526 1.69433549,0.712384196 3.39617109,0.712384196 Z" id="Rectangle-4" fill="#000000" transform="translate(1.921091, 1.102725) rotate(-17.000000) translate(-1.921091, -1.102725) "></path>
                            <path d="M15.7098833,0.712384196 C15.7098833,0.712384196 15.7098833,0.972611526 15.7098833,1.49306619 L12.7597231,1.49306619 C13.024661,0.972611526 14.0080478,0.712384196 15.7098833,0.712384196 Z" id="Rectangle-4-Copy" fill="#000000" transform="translate(14.234803, 1.102725) scale(-1, 1) rotate(-17.000000) translate(-14.234803, -1.102725) "></path>
                            <ellipse id="Oval-2" stroke="#000000" stroke-width="0.5" fill="#FFFFFF" transform="translate(11.185318, 10.930071) rotate(8.000000) translate(-11.185318, -10.930071) " cx="11.185318" cy="10.930071" rx="2.82189239" ry="4.03352361"></ellipse>
                            <ellipse id="Oval" stroke="#000000" stroke-width="0.5" fill="#FFFFFF" transform="translate(5.464539, 10.375771) rotate(-10.000000) translate(-5.464539, -10.375771) " cx="5.46453871" cy="10.3757714" rx="3.14256198" ry="5.0093761"></ellipse>
                            <ellipse id="Oval-3" fill="#000000" transform="translate(6.856883, 11.798684) rotate(-12.000000) translate(-6.856883, -11.798684) " cx="6.85688259" cy="11.7986836" rx="1" ry="1.23607982"></ellipse>
                            <ellipse id="Oval-3-Copy" fill="#000000" transform="translate(9.985250, 11.954061) rotate(10.000000) translate(-9.985250, -11.954061) " cx="9.98525006" cy="11.9540611" rx="1" ry="1.02407747"></ellipse>
                            <g id="Group" transform="translate(6.010865, 10.961283)"></g>
                            <g id="Group-Copy" transform="translate(9.773316, 11.827901) rotate(10.000000) translate(-9.773316, -11.827901) translate(9.375357, 11.232010)"></g>
                            <path d="M0.654494856,20.9235991 C1.58851643,22.5148634 5.11860171,24.1061276 8.47846544,24.1061276 C13.7074902,23.641421 14.9126712,20.9235991 15.8263934,18.7681028 C15.8263934,19.0040029 11.3481263,22.6239529 7.89811157,22.5148634 C4.11947963,22.3953829 0.654494856,21.3420969 0.654494856,20.9235991 Z" id="Rectangle-5" fill="#000000"></path>
                        </g>
                    </g>
                </g>
            </g>
        </g>
    </g>
</svg>