<?xml version="1.0" encoding="UTF-8"?>
<svg width="800px" height="61px" viewBox="0 0 800 61" version="1.1" xmlns="http://www.w3.org/2000/svg" xmlns:xlink="http://www.w3.org/1999/xlink">
    <!-- Generator: Sketch 49.3 (51167) - http://www.bohemiancoding.com/sketch -->
    <title>rods</title>
    <desc>Created with Sketch.</desc>
    <defs>
        <linearGradient x1="68.8988447%" y1="100%" x2="-36.3055394%" y2="100%" id="linearGradient-1">
            <stop stop-color="#FFFBA9" offset="0%"></stop>
            <stop stop-color="#9D8560" offset="100%"></stop>
        </linearGradient>
    </defs>
    <g id="Screens" stroke="none" stroke-width="1" fill="none" fill-rule="evenodd">
        <g id="Level1" transform="translate(0.000000, -448.000000)">
            <g id="rods" transform="translate(-4.000000, 448.000000)">
                <g id="rod-Copy-53" transform="translate(795.000000, 0.000000)">
                    <polygon id="Rectangle-13" fill="#FFFBAC" points="2.99284281 4.02942127 15 4.02942127 12.4568647 61 0 61"></polygon>
                    <ellipse id="Oval-5" fill="#FFFBAC" cx="9" cy="4.09701493" rx="6" ry="4.09701493"></ellipse>
                    <path d="M2.98703604,3.79456799 C3.05213262,3.41572515 3.11814456,3.27684667 3.19890628,3.04313716 C3.27966799,2.80942766 3.54771136,2.3585155 3.80349103,2.04275396 C4.04352096,1.74643556 4.5741213,1.23415332 5.23038619,0.87538029 C5.66789612,0.63619827 6.1888292,0.436843787 6.79318542,0.277316841 L10.5005603,47.3345827 L0.694339614,47.3345827 C2.18634928,18.9525798 2.95058142,4.43924154 2.98703604,3.79456799 Z" id="Rectangle-14" fill="url(#linearGradient-1)"></path>
                </g>
                <g id="rod-Copy-52" transform="translate(780.000000, 0.000000)">
                    <polygon id="Rectangle-13" fill="#FFFBAC" points="2.99284281 4.02942127 15 4.02942127 12.4568647 61 0 61"></polygon>
                    <ellipse id="Oval-5" fill="#FFFBAC" cx="9" cy="4.09701493" rx="6" ry="4.09701493"></ellipse>
                    <path d="M2.98703604,3.79456799 C3.05213262,3.41572515 3.11814456,3.27684667 3.19890628,3.04313716 C3.27966799,2.80942766 3.54771136,2.3585155 3.80349103,2.04275396 C4.04352096,1.74643556 4.5741213,1.23415332 5.23038619,0.87538029 C5.66789612,0.63619827 6.1888292,0.436843787 6.79318542,0.277316841 L10.5005603,47.3345827 L0.694339614,47.3345827 C2.18634928,18.9525798 2.95058142,4.43924154 2.98703604,3.79456799 Z" id="Rectangle-14" fill="url(#linearGradient-1)"></path>
                </g>
                <g id="rod-Copy-51" transform="translate(765.000000, 0.000000)">
                    <polygon id="Rectangle-13" fill="#FFFBAC" points="2.99284281 4.02942127 15 4.02942127 12.4568647 61 0 61"></polygon>
                    <ellipse id="Oval-5" fill="#FFFBAC" cx="9" cy="4.09701493" rx="6" ry="4.09701493"></ellipse>
                    <path d="M2.98703604,3.79456799 C3.05213262,3.41572515 3.11814456,3.27684667 3.19890628,3.04313716 C3.27966799,2.80942766 3.54771136,2.3585155 3.80349103,2.04275396 C4.04352096,1.74643556 4.5741213,1.23415332 5.23038619,0.87538029 C5.66789612,0.63619827 6.1888292,0.436843787 6.79318542,0.277316841 L10.5005603,47.3345827 L0.694339614,47.3345827 C2.18634928,18.9525798 2.95058142,4.43924154 2.98703604,3.79456799 Z" id="Rectangle-14" fill="url(#linearGradient-1)"></path>
                </g>
                <g id="rod-Copy-50" transform="translate(750.000000, 0.000000)">
                    <polygon id="Rectangle-13" fill="#FFFBAC" points="2.99284281 4.02942127 15 4.02942127 12.4568647 61 0 61"></polygon>
                    <ellipse id="Oval-5" fill="#FFFBAC" cx="9" cy="4.09701493" rx="6" ry="4.09701493"></ellipse>
                    <path d="M2.98703604,3.79456799 C3.05213262,3.41572515 3.11814456,3.27684667 3.19890628,3.04313716 C3.27966799,2.80942766 3.54771136,2.3585155 3.80349103,2.04275396 C4.04352096,1.74643556 4.5741213,1.23415332 5.23038619,0.87538029 C5.66789612,0.63619827 6.1888292,0.436843787 6.79318542,0.277316841 L10.5005603,47.3345827 L0.694339614,47.3345827 C2.18634928,18.9525798 2.95058142,4.43924154 2.98703604,3.79456799 Z" id="Rectangle-14" fill="url(#linearGradient-1)"></path>
                </g>
                <g id="rod-Copy-49" transform="translate(735.000000, 0.000000)">
                    <polygon id="Rectangle-13" fill="#FFFBAC" points="2.99284281 4.02942127 15 4.02942127 12.4568647 61 0 61"></polygon>
                    <ellipse id="Oval-5" fill="#FFFBAC" cx="9" cy="4.09701493" rx="6" ry="4.09701493"></ellipse>
                    <path d="M2.98703604,3.79456799 C3.05213262,3.41572515 3.11814456,3.27684667 3.19890628,3.04313716 C3.27966799,2.80942766 3.54771136,2.3585155 3.80349103,2.04275396 C4.04352096,1.74643556 4.5741213,1.23415332 5.23038619,0.87538029 C5.66789612,0.63619827 6.1888292,0.436843787 6.79318542,0.277316841 L10.5005603,47.3345827 L0.694339614,47.3345827 C2.18634928,18.9525798 2.95058142,4.43924154 2.98703604,3.79456799 Z" id="Rectangle-14" fill="url(#linearGradient-1)"></path>
                </g>
                <g id="rod-Copy-48" transform="translate(720.000000, 0.000000)">
                    <polygon id="Rectangle-13" fill="#FFFBAC" points="2.99284281 4.02942127 15 4.02942127 12.4568647 61 0 61"></polygon>
                    <ellipse id="Oval-5" fill="#FFFBAC" cx="9" cy="4.09701493" rx="6" ry="4.09701493"></ellipse>
                    <path d="M2.98703604,3.79456799 C3.05213262,3.41572515 3.11814456,3.27684667 3.19890628,3.04313716 C3.27966799,2.80942766 3.54771136,2.3585155 3.80349103,2.04275396 C4.04352096,1.74643556 4.5741213,1.23415332 5.23038619,0.87538029 C5.66789612,0.63619827 6.1888292,0.436843787 6.79318542,0.277316841 L10.5005603,47.3345827 L0.694339614,47.3345827 C2.18634928,18.9525798 2.95058142,4.43924154 2.98703604,3.79456799 Z" id="Rectangle-14" fill="url(#linearGradient-1)"></path>
                </g>
                <g id="rod-Copy-47" transform="translate(705.000000, 0.000000)">
                    <polygon id="Rectangle-13" fill="#FFFBAC" points="2.99284281 4.02942127 15 4.02942127 12.4568647 61 0 61"></polygon>
                    <ellipse id="Oval-5" fill="#FFFBAC" cx="9" cy="4.09701493" rx="6" ry="4.09701493"></ellipse>
                    <path d="M2.98703604,3.79456799 C3.05213262,3.41572515 3.11814456,3.27684667 3.19890628,3.04313716 C3.27966799,2.80942766 3.54771136,2.3585155 3.80349103,2.04275396 C4.04352096,1.74643556 4.5741213,1.23415332 5.23038619,0.87538029 C5.66789612,0.63619827 6.1888292,0.436843787 6.79318542,0.277316841 L10.5005603,47.3345827 L0.694339614,47.3345827 C2.18634928,18.9525798 2.95058142,4.43924154 2.98703604,3.79456799 Z" id="Rectangle-14" fill="url(#linearGradient-1)"></path>
                </g>
                <g id="rod-Copy-46" transform="translate(690.000000, 0.000000)">
                    <polygon id="Rectangle-13" fill="#FFFBAC" points="2.99284281 4.02942127 15 4.02942127 12.4568647 61 0 61"></polygon>
                    <ellipse id="Oval-5" fill="#FFFBAC" cx="9" cy="4.09701493" rx="6" ry="4.09701493"></ellipse>
                    <path d="M2.98703604,3.79456799 C3.05213262,3.41572515 3.11814456,3.27684667 3.19890628,3.04313716 C3.27966799,2.80942766 3.54771136,2.3585155 3.80349103,2.04275396 C4.04352096,1.74643556 4.5741213,1.23415332 5.23038619,0.87538029 C5.66789612,0.63619827 6.1888292,0.436843787 6.79318542,0.277316841 L10.5005603,47.3345827 L0.694339614,47.3345827 C2.18634928,18.9525798 2.95058142,4.43924154 2.98703604,3.79456799 Z" id="Rectangle-14" fill="url(#linearGradient-1)"></path>
                </g>
                <g id="rod-Copy-45" transform="translate(675.000000, 0.000000)">
                    <polygon id="Rectangle-13" fill="#FFFBAC" points="2.99284281 4.02942127 15 4.02942127 12.4568647 61 0 61"></polygon>
                    <ellipse id="Oval-5" fill="#FFFBAC" cx="9" cy="4.09701493" rx="6" ry="4.09701493"></ellipse>
                    <path d="M2.98703604,3.79456799 C3.05213262,3.41572515 3.11814456,3.27684667 3.19890628,3.04313716 C3.27966799,2.80942766 3.54771136,2.3585155 3.80349103,2.04275396 C4.04352096,1.74643556 4.5741213,1.23415332 5.23038619,0.87538029 C5.66789612,0.63619827 6.1888292,0.436843787 6.79318542,0.277316841 L10.5005603,47.3345827 L0.694339614,47.3345827 C2.18634928,18.9525798 2.95058142,4.43924154 2.98703604,3.79456799 Z" id="Rectangle-14" fill="url(#linearGradient-1)"></path>
                </g>
                <g id="rod-Copy-44" transform="translate(660.000000, 0.000000)">
                    <polygon id="Rectangle-13" fill="#FFFBAC" points="2.99284281 4.02942127 15 4.02942127 12.4568647 61 0 61"></polygon>
                    <ellipse id="Oval-5" fill="#FFFBAC" cx="9" cy="4.09701493" rx="6" ry="4.09701493"></ellipse>
                    <path d="M2.98703604,3.79456799 C3.05213262,3.41572515 3.11814456,3.27684667 3.19890628,3.04313716 C3.27966799,2.80942766 3.54771136,2.3585155 3.80349103,2.04275396 C4.04352096,1.74643556 4.5741213,1.23415332 5.23038619,0.87538029 C5.66789612,0.63619827 6.1888292,0.436843787 6.79318542,0.277316841 L10.5005603,47.3345827 L0.694339614,47.3345827 C2.18634928,18.9525798 2.95058142,4.43924154 2.98703604,3.79456799 Z" id="Rectangle-14" fill="url(#linearGradient-1)"></path>
                </g>
                <g id="rod-Copy-43" transform="translate(645.000000, 0.000000)">
                    <polygon id="Rectangle-13" fill="#FFFBAC" points="2.99284281 4.02942127 15 4.02942127 12.4568647 61 0 61"></polygon>
                    <ellipse id="Oval-5" fill="#FFFBAC" cx="9" cy="4.09701493" rx="6" ry="4.09701493"></ellipse>
                    <path d="M2.98703604,3.79456799 C3.05213262,3.41572515 3.11814456,3.27684667 3.19890628,3.04313716 C3.27966799,2.80942766 3.54771136,2.3585155 3.80349103,2.04275396 C4.04352096,1.74643556 4.5741213,1.23415332 5.23038619,0.87538029 C5.66789612,0.63619827 6.1888292,0.436843787 6.79318542,0.277316841 L10.5005603,47.3345827 L0.694339614,47.3345827 C2.18634928,18.9525798 2.95058142,4.43924154 2.98703604,3.79456799 Z" id="Rectangle-14" fill="url(#linearGradient-1)"></path>
                </g>
                <g id="rod-Copy-42" transform="translate(630.000000, 0.000000)">
                    <polygon id="Rectangle-13" fill="#FFFBAC" points="2.99284281 4.02942127 15 4.02942127 12.4568647 61 0 61"></polygon>
                    <ellipse id="Oval-5" fill="#FFFBAC" cx="9" cy="4.09701493" rx="6" ry="4.09701493"></ellipse>
                    <path d="M2.98703604,3.79456799 C3.05213262,3.41572515 3.11814456,3.27684667 3.19890628,3.04313716 C3.27966799,2.80942766 3.54771136,2.3585155 3.80349103,2.04275396 C4.04352096,1.74643556 4.5741213,1.23415332 5.23038619,0.87538029 C5.66789612,0.63619827 6.1888292,0.436843787 6.79318542,0.277316841 L10.5005603,47.3345827 L0.694339614,47.3345827 C2.18634928,18.9525798 2.95058142,4.43924154 2.98703604,3.79456799 Z" id="Rectangle-14" fill="url(#linearGradient-1)"></path>
                </g>
                <g id="rod-Copy-41" transform="translate(615.000000, 0.000000)">
                    <polygon id="Rectangle-13" fill="#FFFBAC" points="2.99284281 4.02942127 15 4.02942127 12.4568647 61 0 61"></polygon>
                    <ellipse id="Oval-5" fill="#FFFBAC" cx="9" cy="4.09701493" rx="6" ry="4.09701493"></ellipse>
                    <path d="M2.98703604,3.79456799 C3.05213262,3.41572515 3.11814456,3.27684667 3.19890628,3.04313716 C3.27966799,2.80942766 3.54771136,2.3585155 3.80349103,2.04275396 C4.04352096,1.74643556 4.5741213,1.23415332 5.23038619,0.87538029 C5.66789612,0.63619827 6.1888292,0.436843787 6.79318542,0.277316841 L10.5005603,47.3345827 L0.694339614,47.3345827 C2.18634928,18.9525798 2.95058142,4.43924154 2.98703604,3.79456799 Z" id="Rectangle-14" fill="url(#linearGradient-1)"></path>
                </g>
                <g id="rod-Copy-40" transform="translate(600.000000, 0.000000)">
                    <polygon id="Rectangle-13" fill="#FFFBAC" points="2.99284281 4.02942127 15 4.02942127 12.4568647 61 0 61"></polygon>
                    <ellipse id="Oval-5" fill="#FFFBAC" cx="9" cy="4.09701493" rx="6" ry="4.09701493"></ellipse>
                    <path d="M2.98703604,3.79456799 C3.05213262,3.41572515 3.11814456,3.27684667 3.19890628,3.04313716 C3.27966799,2.80942766 3.54771136,2.3585155 3.80349103,2.04275396 C4.04352096,1.74643556 4.5741213,1.23415332 5.23038619,0.87538029 C5.66789612,0.63619827 6.1888292,0.436843787 6.79318542,0.277316841 L10.5005603,47.3345827 L0.694339614,47.3345827 C2.18634928,18.9525798 2.95058142,4.43924154 2.98703604,3.79456799 Z" id="Rectangle-14" fill="url(#linearGradient-1)"></path>
                </g>
                <g id="rod-Copy-39" transform="translate(585.000000, 0.000000)">
                    <polygon id="Rectangle-13" fill="#FFFBAC" points="2.99284281 4.02942127 15 4.02942127 12.4568647 61 0 61"></polygon>
                    <ellipse id="Oval-5" fill="#FFFBAC" cx="9" cy="4.09701493" rx="6" ry="4.09701493"></ellipse>
                    <path d="M2.98703604,3.79456799 C3.05213262,3.41572515 3.11814456,3.27684667 3.19890628,3.04313716 C3.27966799,2.80942766 3.54771136,2.3585155 3.80349103,2.04275396 C4.04352096,1.74643556 4.5741213,1.23415332 5.23038619,0.87538029 C5.66789612,0.63619827 6.1888292,0.436843787 6.79318542,0.277316841 L10.5005603,47.3345827 L0.694339614,47.3345827 C2.18634928,18.9525798 2.95058142,4.43924154 2.98703604,3.79456799 Z" id="Rectangle-14" fill="url(#linearGradient-1)"></path>
                </g>
                <g id="rod-Copy-38" transform="translate(570.000000, 0.000000)">
                    <polygon id="Rectangle-13" fill="#FFFBAC" points="2.99284281 4.02942127 15 4.02942127 12.4568647 61 0 61"></polygon>
                    <ellipse id="Oval-5" fill="#FFFBAC" cx="9" cy="4.09701493" rx="6" ry="4.09701493"></ellipse>
                    <path d="M2.98703604,3.79456799 C3.05213262,3.41572515 3.11814456,3.27684667 3.19890628,3.04313716 C3.27966799,2.80942766 3.54771136,2.3585155 3.80349103,2.04275396 C4.04352096,1.74643556 4.5741213,1.23415332 5.23038619,0.87538029 C5.66789612,0.63619827 6.1888292,0.436843787 6.79318542,0.277316841 L10.5005603,47.3345827 L0.694339614,47.3345827 C2.18634928,18.9525798 2.95058142,4.43924154 2.98703604,3.79456799 Z" id="Rectangle-14" fill="url(#linearGradient-1)"></path>
                </g>
                <g id="rod-Copy-37" transform="translate(555.000000, 0.000000)">
                    <polygon id="Rectangle-13" fill="#FFFBAC" points="2.99284281 4.02942127 15 4.02942127 12.4568647 61 0 61"></polygon>
                    <ellipse id="Oval-5" fill="#FFFBAC" cx="9" cy="4.09701493" rx="6" ry="4.09701493"></ellipse>
                    <path d="M2.98703604,3.79456799 C3.05213262,3.41572515 3.11814456,3.27684667 3.19890628,3.04313716 C3.27966799,2.80942766 3.54771136,2.3585155 3.80349103,2.04275396 C4.04352096,1.74643556 4.5741213,1.23415332 5.23038619,0.87538029 C5.66789612,0.63619827 6.1888292,0.436843787 6.79318542,0.277316841 L10.5005603,47.3345827 L0.694339614,47.3345827 C2.18634928,18.9525798 2.95058142,4.43924154 2.98703604,3.79456799 Z" id="Rectangle-14" fill="url(#linearGradient-1)"></path>
                </g>
                <g id="rod-Copy-36" transform="translate(540.000000, 0.000000)">
                    <polygon id="Rectangle-13" fill="#FFFBAC" points="2.99284281 4.02942127 15 4.02942127 12.4568647 61 0 61"></polygon>
                    <ellipse id="Oval-5" fill="#FFFBAC" cx="9" cy="4.09701493" rx="6" ry="4.09701493"></ellipse>
                    <path d="M2.98703604,3.79456799 C3.05213262,3.41572515 3.11814456,3.27684667 3.19890628,3.04313716 C3.27966799,2.80942766 3.54771136,2.3585155 3.80349103,2.04275396 C4.04352096,1.74643556 4.5741213,1.23415332 5.23038619,0.87538029 C5.66789612,0.63619827 6.1888292,0.436843787 6.79318542,0.277316841 L10.5005603,47.3345827 L0.694339614,47.3345827 C2.18634928,18.9525798 2.95058142,4.43924154 2.98703604,3.79456799 Z" id="Rectangle-14" fill="url(#linearGradient-1)"></path>
                </g>
                <g id="rod-Copy-35" transform="translate(525.000000, 0.000000)">
                    <polygon id="Rectangle-13" fill="#FFFBAC" points="2.99284281 4.02942127 15 4.02942127 12.4568647 61 0 61"></polygon>
                    <ellipse id="Oval-5" fill="#FFFBAC" cx="9" cy="4.09701493" rx="6" ry="4.09701493"></ellipse>
                    <path d="M2.98703604,3.79456799 C3.05213262,3.41572515 3.11814456,3.27684667 3.19890628,3.04313716 C3.27966799,2.80942766 3.54771136,2.3585155 3.80349103,2.04275396 C4.04352096,1.74643556 4.5741213,1.23415332 5.23038619,0.87538029 C5.66789612,0.63619827 6.1888292,0.436843787 6.79318542,0.277316841 L10.5005603,47.3345827 L0.694339614,47.3345827 C2.18634928,18.9525798 2.95058142,4.43924154 2.98703604,3.79456799 Z" id="Rectangle-14" fill="url(#linearGradient-1)"></path>
                </g>
                <g id="rod-Copy-34" transform="translate(510.000000, 0.000000)">
                    <polygon id="Rectangle-13" fill="#FFFBAC" points="2.99284281 4.02942127 15 4.02942127 12.4568647 61 0 61"></polygon>
                    <ellipse id="Oval-5" fill="#FFFBAC" cx="9" cy="4.09701493" rx="6" ry="4.09701493"></ellipse>
                    <path d="M2.98703604,3.79456799 C3.05213262,3.41572515 3.11814456,3.27684667 3.19890628,3.04313716 C3.27966799,2.80942766 3.54771136,2.3585155 3.80349103,2.04275396 C4.04352096,1.74643556 4.5741213,1.23415332 5.23038619,0.87538029 C5.66789612,0.63619827 6.1888292,0.436843787 6.79318542,0.277316841 L10.5005603,47.3345827 L0.694339614,47.3345827 C2.18634928,18.9525798 2.95058142,4.43924154 2.98703604,3.79456799 Z" id="Rectangle-14" fill="url(#linearGradient-1)"></path>
                </g>
                <g id="rod-Copy-33" transform="translate(495.000000, 0.000000)">
                    <polygon id="Rectangle-13" fill="#FFFBAC" points="2.99284281 4.02942127 15 4.02942127 12.4568647 61 0 61"></polygon>
                    <ellipse id="Oval-5" fill="#FFFBAC" cx="9" cy="4.09701493" rx="6" ry="4.09701493"></ellipse>
                    <path d="M2.98703604,3.79456799 C3.05213262,3.41572515 3.11814456,3.27684667 3.19890628,3.04313716 C3.27966799,2.80942766 3.54771136,2.3585155 3.80349103,2.04275396 C4.04352096,1.74643556 4.5741213,1.23415332 5.23038619,0.87538029 C5.66789612,0.63619827 6.1888292,0.436843787 6.79318542,0.277316841 L10.5005603,47.3345827 L0.694339614,47.3345827 C2.18634928,18.9525798 2.95058142,4.43924154 2.98703604,3.79456799 Z" id="Rectangle-14" fill="url(#linearGradient-1)"></path>
                </g>
                <g id="rod-Copy-32" transform="translate(480.000000, 0.000000)">
                    <polygon id="Rectangle-13" fill="#FFFBAC" points="2.99284281 4.02942127 15 4.02942127 12.4568647 61 0 61"></polygon>
                    <ellipse id="Oval-5" fill="#FFFBAC" cx="9" cy="4.09701493" rx="6" ry="4.09701493"></ellipse>
                    <path d="M2.98703604,3.79456799 C3.05213262,3.41572515 3.11814456,3.27684667 3.19890628,3.04313716 C3.27966799,2.80942766 3.54771136,2.3585155 3.80349103,2.04275396 C4.04352096,1.74643556 4.5741213,1.23415332 5.23038619,0.87538029 C5.66789612,0.63619827 6.1888292,0.436843787 6.79318542,0.277316841 L10.5005603,47.3345827 L0.694339614,47.3345827 C2.18634928,18.9525798 2.95058142,4.43924154 2.98703604,3.79456799 Z" id="Rectangle-14" fill="url(#linearGradient-1)"></path>
                </g>
                <g id="rod-Copy-31" transform="translate(465.000000, 0.000000)">
                    <polygon id="Rectangle-13" fill="#FFFBAC" points="2.99284281 4.02942127 15 4.02942127 12.4568647 61 0 61"></polygon>
                    <ellipse id="Oval-5" fill="#FFFBAC" cx="9" cy="4.09701493" rx="6" ry="4.09701493"></ellipse>
                    <path d="M2.98703604,3.79456799 C3.05213262,3.41572515 3.11814456,3.27684667 3.19890628,3.04313716 C3.27966799,2.80942766 3.54771136,2.3585155 3.80349103,2.04275396 C4.04352096,1.74643556 4.5741213,1.23415332 5.23038619,0.87538029 C5.66789612,0.63619827 6.1888292,0.436843787 6.79318542,0.277316841 L10.5005603,47.3345827 L0.694339614,47.3345827 C2.18634928,18.9525798 2.95058142,4.43924154 2.98703604,3.79456799 Z" id="Rectangle-14" fill="url(#linearGradient-1)"></path>
                </g>
                <g id="rod-Copy-30" transform="translate(450.000000, 0.000000)">
                    <polygon id="Rectangle-13" fill="#FFFBAC" points="2.99284281 4.02942127 15 4.02942127 12.4568647 61 0 61"></polygon>
                    <ellipse id="Oval-5" fill="#FFFBAC" cx="9" cy="4.09701493" rx="6" ry="4.09701493"></ellipse>
                    <path d="M2.98703604,3.79456799 C3.05213262,3.41572515 3.11814456,3.27684667 3.19890628,3.04313716 C3.27966799,2.80942766 3.54771136,2.3585155 3.80349103,2.04275396 C4.04352096,1.74643556 4.5741213,1.23415332 5.23038619,0.87538029 C5.66789612,0.63619827 6.1888292,0.436843787 6.79318542,0.277316841 L10.5005603,47.3345827 L0.694339614,47.3345827 C2.18634928,18.9525798 2.95058142,4.43924154 2.98703604,3.79456799 Z" id="Rectangle-14" fill="url(#linearGradient-1)"></path>
                </g>
                <g id="rod-Copy-29" transform="translate(435.000000, 0.000000)">
                    <polygon id="Rectangle-13" fill="#FFFBAC" points="2.99284281 4.02942127 15 4.02942127 12.4568647 61 0 61"></polygon>
                    <ellipse id="Oval-5" fill="#FFFBAC" cx="9" cy="4.09701493" rx="6" ry="4.09701493"></ellipse>
                    <path d="M2.98703604,3.79456799 C3.05213262,3.41572515 3.11814456,3.27684667 3.19890628,3.04313716 C3.27966799,2.80942766 3.54771136,2.3585155 3.80349103,2.04275396 C4.04352096,1.74643556 4.5741213,1.23415332 5.23038619,0.87538029 C5.66789612,0.63619827 6.1888292,0.436843787 6.79318542,0.277316841 L10.5005603,47.3345827 L0.694339614,47.3345827 C2.18634928,18.9525798 2.95058142,4.43924154 2.98703604,3.79456799 Z" id="Rectangle-14" fill="url(#linearGradient-1)"></path>
                </g>
                <g id="rod-Copy-28" transform="translate(420.000000, 0.000000)">
                    <polygon id="Rectangle-13" fill="#FFFBAC" points="2.99284281 4.02942127 15 4.02942127 12.4568647 61 0 61"></polygon>
                    <ellipse id="Oval-5" fill="#FFFBAC" cx="9" cy="4.09701493" rx="6" ry="4.09701493"></ellipse>
                    <path d="M2.98703604,3.79456799 C3.05213262,3.41572515 3.11814456,3.27684667 3.19890628,3.04313716 C3.27966799,2.80942766 3.54771136,2.3585155 3.80349103,2.04275396 C4.04352096,1.74643556 4.5741213,1.23415332 5.23038619,0.87538029 C5.66789612,0.63619827 6.1888292,0.436843787 6.79318542,0.277316841 L10.5005603,47.3345827 L0.694339614,47.3345827 C2.18634928,18.9525798 2.95058142,4.43924154 2.98703604,3.79456799 Z" id="Rectangle-14" fill="url(#linearGradient-1)"></path>
                </g>
                <g id="rod-Copy-27" transform="translate(405.000000, 0.000000)">
                    <polygon id="Rectangle-13" fill="#FFFBAC" points="2.99284281 4.02942127 15 4.02942127 12.4568647 61 0 61"></polygon>
                    <ellipse id="Oval-5" fill="#FFFBAC" cx="9" cy="4.09701493" rx="6" ry="4.09701493"></ellipse>
                    <path d="M2.98703604,3.79456799 C3.05213262,3.41572515 3.11814456,3.27684667 3.19890628,3.04313716 C3.27966799,2.80942766 3.54771136,2.3585155 3.80349103,2.04275396 C4.04352096,1.74643556 4.5741213,1.23415332 5.23038619,0.87538029 C5.66789612,0.63619827 6.1888292,0.436843787 6.79318542,0.277316841 L10.5005603,47.3345827 L0.694339614,47.3345827 C2.18634928,18.9525798 2.95058142,4.43924154 2.98703604,3.79456799 Z" id="Rectangle-14" fill="url(#linearGradient-1)"></path>
                </g>
                <g id="rod-Copy-26" transform="translate(390.000000, 0.000000)">
                    <polygon id="Rectangle-13" fill="#FFFBAC" points="2.99284281 4.02942127 15 4.02942127 12.4568647 61 0 61"></polygon>
                    <ellipse id="Oval-5" fill="#FFFBAC" cx="9" cy="4.09701493" rx="6" ry="4.09701493"></ellipse>
                    <path d="M2.98703604,3.79456799 C3.05213262,3.41572515 3.11814456,3.27684667 3.19890628,3.04313716 C3.27966799,2.80942766 3.54771136,2.3585155 3.80349103,2.04275396 C4.04352096,1.74643556 4.5741213,1.23415332 5.23038619,0.87538029 C5.66789612,0.63619827 6.1888292,0.436843787 6.79318542,0.277316841 L10.5005603,47.3345827 L0.694339614,47.3345827 C2.18634928,18.9525798 2.95058142,4.43924154 2.98703604,3.79456799 Z" id="Rectangle-14" fill="url(#linearGradient-1)"></path>
                </g>
                <g id="rod-Copy-25" transform="translate(375.000000, 0.000000)">
                    <polygon id="Rectangle-13" fill="#FFFBAC" points="2.99284281 4.02942127 15 4.02942127 12.4568647 61 0 61"></polygon>
                    <ellipse id="Oval-5" fill="#FFFBAC" cx="9" cy="4.09701493" rx="6" ry="4.09701493"></ellipse>
                    <path d="M2.98703604,3.79456799 C3.05213262,3.41572515 3.11814456,3.27684667 3.19890628,3.04313716 C3.27966799,2.80942766 3.54771136,2.3585155 3.80349103,2.04275396 C4.04352096,1.74643556 4.5741213,1.23415332 5.23038619,0.87538029 C5.66789612,0.63619827 6.1888292,0.436843787 6.79318542,0.277316841 L10.5005603,47.3345827 L0.694339614,47.3345827 C2.18634928,18.9525798 2.95058142,4.43924154 2.98703604,3.79456799 Z" id="Rectangle-14" fill="url(#linearGradient-1)"></path>
                </g>
                <g id="rod-Copy-24" transform="translate(360.000000, 0.000000)">
                    <polygon id="Rectangle-13" fill="#FFFBAC" points="2.99284281 4.02942127 15 4.02942127 12.4568647 61 0 61"></polygon>
                    <ellipse id="Oval-5" fill="#FFFBAC" cx="9" cy="4.09701493" rx="6" ry="4.09701493"></ellipse>
                    <path d="M2.98703604,3.79456799 C3.05213262,3.41572515 3.11814456,3.27684667 3.19890628,3.04313716 C3.27966799,2.80942766 3.54771136,2.3585155 3.80349103,2.04275396 C4.04352096,1.74643556 4.5741213,1.23415332 5.23038619,0.87538029 C5.66789612,0.63619827 6.1888292,0.436843787 6.79318542,0.277316841 L10.5005603,47.3345827 L0.694339614,47.3345827 C2.18634928,18.9525798 2.95058142,4.43924154 2.98703604,3.79456799 Z" id="Rectangle-14" fill="url(#linearGradient-1)"></path>
                </g>
                <g id="rod-Copy-23" transform="translate(345.000000, 0.000000)">
                    <polygon id="Rectangle-13" fill="#FFFBAC" points="2.99284281 4.02942127 15 4.02942127 12.4568647 61 0 61"></polygon>
                    <ellipse id="Oval-5" fill="#FFFBAC" cx="9" cy="4.09701493" rx="6" ry="4.09701493"></ellipse>
                    <path d="M2.98703604,3.79456799 C3.05213262,3.41572515 3.11814456,3.27684667 3.19890628,3.04313716 C3.27966799,2.80942766 3.54771136,2.3585155 3.80349103,2.04275396 C4.04352096,1.74643556 4.5741213,1.23415332 5.23038619,0.87538029 C5.66789612,0.63619827 6.1888292,0.436843787 6.79318542,0.277316841 L10.5005603,47.3345827 L0.694339614,47.3345827 C2.18634928,18.9525798 2.95058142,4.43924154 2.98703604,3.79456799 Z" id="Rectangle-14" fill="url(#linearGradient-1)"></path>
                </g>
                <g id="rod-Copy-22" transform="translate(330.000000, 0.000000)">
                    <polygon id="Rectangle-13" fill="#FFFBAC" points="2.99284281 4.02942127 15 4.02942127 12.4568647 61 0 61"></polygon>
                    <ellipse id="Oval-5" fill="#FFFBAC" cx="9" cy="4.09701493" rx="6" ry="4.09701493"></ellipse>
                    <path d="M2.98703604,3.79456799 C3.05213262,3.41572515 3.11814456,3.27684667 3.19890628,3.04313716 C3.27966799,2.80942766 3.54771136,2.3585155 3.80349103,2.04275396 C4.04352096,1.74643556 4.5741213,1.23415332 5.23038619,0.87538029 C5.66789612,0.63619827 6.1888292,0.436843787 6.79318542,0.277316841 L10.5005603,47.3345827 L0.694339614,47.3345827 C2.18634928,18.9525798 2.95058142,4.43924154 2.98703604,3.79456799 Z" id="Rectangle-14" fill="url(#linearGradient-1)"></path>
                </g>
                <g id="rod-Copy-21" transform="translate(315.000000, 0.000000)">
                    <polygon id="Rectangle-13" fill="#FFFBAC" points="2.99284281 4.02942127 15 4.02942127 12.4568647 61 0 61"></polygon>
                    <ellipse id="Oval-5" fill="#FFFBAC" cx="9" cy="4.09701493" rx="6" ry="4.09701493"></ellipse>
                    <path d="M2.98703604,3.79456799 C3.05213262,3.41572515 3.11814456,3.27684667 3.19890628,3.04313716 C3.27966799,2.80942766 3.54771136,2.3585155 3.80349103,2.04275396 C4.04352096,1.74643556 4.5741213,1.23415332 5.23038619,0.87538029 C5.66789612,0.63619827 6.1888292,0.436843787 6.79318542,0.277316841 L10.5005603,47.3345827 L0.694339614,47.3345827 C2.18634928,18.9525798 2.95058142,4.43924154 2.98703604,3.79456799 Z" id="Rectangle-14" fill="url(#linearGradient-1)"></path>
                </g>
                <g id="rod-Copy-20" transform="translate(300.000000, 0.000000)">
                    <polygon id="Rectangle-13" fill="#FFFBAC" points="2.99284281 4.02942127 15 4.02942127 12.4568647 61 0 61"></polygon>
                    <ellipse id="Oval-5" fill="#FFFBAC" cx="9" cy="4.09701493" rx="6" ry="4.09701493"></ellipse>
                    <path d="M2.98703604,3.79456799 C3.05213262,3.41572515 3.11814456,3.27684667 3.19890628,3.04313716 C3.27966799,2.80942766 3.54771136,2.3585155 3.80349103,2.04275396 C4.04352096,1.74643556 4.5741213,1.23415332 5.23038619,0.87538029 C5.66789612,0.63619827 6.1888292,0.436843787 6.79318542,0.277316841 L10.5005603,47.3345827 L0.694339614,47.3345827 C2.18634928,18.9525798 2.95058142,4.43924154 2.98703604,3.79456799 Z" id="Rectangle-14" fill="url(#linearGradient-1)"></path>
                </g>
                <g id="rod-Copy-19" transform="translate(285.000000, 0.000000)">
                    <polygon id="Rectangle-13" fill="#FFFBAC" points="2.99284281 4.02942127 15 4.02942127 12.4568647 61 0 61"></polygon>
                    <ellipse id="Oval-5" fill="#FFFBAC" cx="9" cy="4.09701493" rx="6" ry="4.09701493"></ellipse>
                    <path d="M2.98703604,3.79456799 C3.05213262,3.41572515 3.11814456,3.27684667 3.19890628,3.04313716 C3.27966799,2.80942766 3.54771136,2.3585155 3.80349103,2.04275396 C4.04352096,1.74643556 4.5741213,1.23415332 5.23038619,0.87538029 C5.66789612,0.63619827 6.1888292,0.436843787 6.79318542,0.277316841 L10.5005603,47.3345827 L0.694339614,47.3345827 C2.18634928,18.9525798 2.95058142,4.43924154 2.98703604,3.79456799 Z" id="Rectangle-14" fill="url(#linearGradient-1)"></path>
                </g>
                <g id="rod-Copy-18" transform="translate(270.000000, 0.000000)">
                    <polygon id="Rectangle-13" fill="#FFFBAC" points="2.99284281 4.02942127 15 4.02942127 12.4568647 61 0 61"></polygon>
                    <ellipse id="Oval-5" fill="#FFFBAC" cx="9" cy="4.09701493" rx="6" ry="4.09701493"></ellipse>
                    <path d="M2.98703604,3.79456799 C3.05213262,3.41572515 3.11814456,3.27684667 3.19890628,3.04313716 C3.27966799,2.80942766 3.54771136,2.3585155 3.80349103,2.04275396 C4.04352096,1.74643556 4.5741213,1.23415332 5.23038619,0.87538029 C5.66789612,0.63619827 6.1888292,0.436843787 6.79318542,0.277316841 L10.5005603,47.3345827 L0.694339614,47.3345827 C2.18634928,18.9525798 2.95058142,4.43924154 2.98703604,3.79456799 Z" id="Rectangle-14" fill="url(#linearGradient-1)"></path>
                </g>
                <g id="rod-Copy-17" transform="translate(255.000000, 0.000000)">
                    <polygon id="Rectangle-13" fill="#FFFBAC" points="2.99284281 4.02942127 15 4.02942127 12.4568647 61 0 61"></polygon>
                    <ellipse id="Oval-5" fill="#FFFBAC" cx="9" cy="4.09701493" rx="6" ry="4.09701493"></ellipse>
                    <path d="M2.98703604,3.79456799 C3.05213262,3.41572515 3.11814456,3.27684667 3.19890628,3.04313716 C3.27966799,2.80942766 3.54771136,2.3585155 3.80349103,2.04275396 C4.04352096,1.74643556 4.5741213,1.23415332 5.23038619,0.87538029 C5.66789612,0.63619827 6.1888292,0.436843787 6.79318542,0.277316841 L10.5005603,47.3345827 L0.694339614,47.3345827 C2.18634928,18.9525798 2.95058142,4.43924154 2.98703604,3.79456799 Z" id="Rectangle-14" fill="url(#linearGradient-1)"></path>
                </g>
                <g id="rod-Copy-16" transform="translate(240.000000, 0.000000)">
                    <polygon id="Rectangle-13" fill="#FFFBAC" points="2.99284281 4.02942127 15 4.02942127 12.4568647 61 0 61"></polygon>
                    <ellipse id="Oval-5" fill="#FFFBAC" cx="9" cy="4.09701493" rx="6" ry="4.09701493"></ellipse>
                    <path d="M2.98703604,3.79456799 C3.05213262,3.41572515 3.11814456,3.27684667 3.19890628,3.04313716 C3.27966799,2.80942766 3.54771136,2.3585155 3.80349103,2.04275396 C4.04352096,1.74643556 4.5741213,1.23415332 5.23038619,0.87538029 C5.66789612,0.63619827 6.1888292,0.436843787 6.79318542,0.277316841 L10.5005603,47.3345827 L0.694339614,47.3345827 C2.18634928,18.9525798 2.95058142,4.43924154 2.98703604,3.79456799 Z" id="Rectangle-14" fill="url(#linearGradient-1)"></path>
                </g>
                <g id="rod-Copy-15" transform="translate(225.000000, 0.000000)">
                    <polygon id="Rectangle-13" fill="#FFFBAC" points="2.99284281 4.02942127 15 4.02942127 12.4568647 61 0 61"></polygon>
                    <ellipse id="Oval-5" fill="#FFFBAC" cx="9" cy="4.09701493" rx="6" ry="4.09701493"></ellipse>
                    <path d="M2.98703604,3.79456799 C3.05213262,3.41572515 3.11814456,3.27684667 3.19890628,3.04313716 C3.27966799,2.80942766 3.54771136,2.3585155 3.80349103,2.04275396 C4.04352096,1.74643556 4.5741213,1.23415332 5.23038619,0.87538029 C5.66789612,0.63619827 6.1888292,0.436843787 6.79318542,0.277316841 L10.5005603,47.3345827 L0.694339614,47.3345827 C2.18634928,18.9525798 2.95058142,4.43924154 2.98703604,3.79456799 Z" id="Rectangle-14" fill="url(#linearGradient-1)"></path>
                </g>
                <g id="rod-Copy-14" transform="translate(210.000000, 0.000000)">
                    <polygon id="Rectangle-13" fill="#FFFBAC" points="2.99284281 4.02942127 15 4.02942127 12.4568647 61 0 61"></polygon>
                    <ellipse id="Oval-5" fill="#FFFBAC" cx="9" cy="4.09701493" rx="6" ry="4.09701493"></ellipse>
                    <path d="M2.98703604,3.79456799 C3.05213262,3.41572515 3.11814456,3.27684667 3.19890628,3.04313716 C3.27966799,2.80942766 3.54771136,2.3585155 3.80349103,2.04275396 C4.04352096,1.74643556 4.5741213,1.23415332 5.23038619,0.87538029 C5.66789612,0.63619827 6.1888292,0.436843787 6.79318542,0.277316841 L10.5005603,47.3345827 L0.694339614,47.3345827 C2.18634928,18.9525798 2.95058142,4.43924154 2.98703604,3.79456799 Z" id="Rectangle-14" fill="url(#linearGradient-1)"></path>
                </g>
                <g id="rod-Copy-13" transform="translate(195.000000, 0.000000)">
                    <polygon id="Rectangle-13" fill="#FFFBAC" points="2.99284281 4.02942127 15 4.02942127 12.4568647 61 0 61"></polygon>
                    <ellipse id="Oval-5" fill="#FFFBAC" cx="9" cy="4.09701493" rx="6" ry="4.09701493"></ellipse>
                    <path d="M2.98703604,3.79456799 C3.05213262,3.41572515 3.11814456,3.27684667 3.19890628,3.04313716 C3.27966799,2.80942766 3.54771136,2.3585155 3.80349103,2.04275396 C4.04352096,1.74643556 4.5741213,1.23415332 5.23038619,0.87538029 C5.66789612,0.63619827 6.1888292,0.436843787 6.79318542,0.277316841 L10.5005603,47.3345827 L0.694339614,47.3345827 C2.18634928,18.9525798 2.95058142,4.43924154 2.98703604,3.79456799 Z" id="Rectangle-14" fill="url(#linearGradient-1)"></path>
                </g>
                <g id="rod-Copy-12" transform="translate(180.000000, 0.000000)">
                    <polygon id="Rectangle-13" fill="#FFFBAC" points="2.99284281 4.02942127 15 4.02942127 12.4568647 61 0 61"></polygon>
                    <ellipse id="Oval-5" fill="#FFFBAC" cx="9" cy="4.09701493" rx="6" ry="4.09701493"></ellipse>
                    <path d="M2.98703604,3.79456799 C3.05213262,3.41572515 3.11814456,3.27684667 3.19890628,3.04313716 C3.27966799,2.80942766 3.54771136,2.3585155 3.80349103,2.04275396 C4.04352096,1.74643556 4.5741213,1.23415332 5.23038619,0.87538029 C5.66789612,0.63619827 6.1888292,0.436843787 6.79318542,0.277316841 L10.5005603,47.3345827 L0.694339614,47.3345827 C2.18634928,18.9525798 2.95058142,4.43924154 2.98703604,3.79456799 Z" id="Rectangle-14" fill="url(#linearGradient-1)"></path>
                </g>
                <g id="rod-Copy-11" transform="translate(165.000000, 0.000000)">
                    <polygon id="Rectangle-13" fill="#FFFBAC" points="2.99284281 4.02942127 15 4.02942127 12.4568647 61 0 61"></polygon>
                    <ellipse id="Oval-5" fill="#FFFBAC" cx="9" cy="4.09701493" rx="6" ry="4.09701493"></ellipse>
                    <path d="M2.98703604,3.79456799 C3.05213262,3.41572515 3.11814456,3.27684667 3.19890628,3.04313716 C3.27966799,2.80942766 3.54771136,2.3585155 3.80349103,2.04275396 C4.04352096,1.74643556 4.5741213,1.23415332 5.23038619,0.87538029 C5.66789612,0.63619827 6.1888292,0.436843787 6.79318542,0.277316841 L10.5005603,47.3345827 L0.694339614,47.3345827 C2.18634928,18.9525798 2.95058142,4.43924154 2.98703604,3.79456799 Z" id="Rectangle-14" fill="url(#linearGradient-1)"></path>
                </g>
                <g id="rod-Copy-10" transform="translate(150.000000, 0.000000)">
                    <polygon id="Rectangle-13" fill="#FFFBAC" points="2.99284281 4.02942127 15 4.02942127 12.4568647 61 0 61"></polygon>
                    <ellipse id="Oval-5" fill="#FFFBAC" cx="9" cy="4.09701493" rx="6" ry="4.09701493"></ellipse>
                    <path d="M2.98703604,3.79456799 C3.05213262,3.41572515 3.11814456,3.27684667 3.19890628,3.04313716 C3.27966799,2.80942766 3.54771136,2.3585155 3.80349103,2.04275396 C4.04352096,1.74643556 4.5741213,1.23415332 5.23038619,0.87538029 C5.66789612,0.63619827 6.1888292,0.436843787 6.79318542,0.277316841 L10.5005603,47.3345827 L0.694339614,47.3345827 C2.18634928,18.9525798 2.95058142,4.43924154 2.98703604,3.79456799 Z" id="Rectangle-14" fill="url(#linearGradient-1)"></path>
                </g>
                <g id="rod-Copy-9" transform="translate(135.000000, 0.000000)">
                    <polygon id="Rectangle-13" fill="#FFFBAC" points="2.99284281 4.02942127 15 4.02942127 12.4568647 61 0 61"></polygon>
                    <ellipse id="Oval-5" fill="#FFFBAC" cx="9" cy="4.09701493" rx="6" ry="4.09701493"></ellipse>
                    <path d="M2.98703604,3.79456799 C3.05213262,3.41572515 3.11814456,3.27684667 3.19890628,3.04313716 C3.27966799,2.80942766 3.54771136,2.3585155 3.80349103,2.04275396 C4.04352096,1.74643556 4.5741213,1.23415332 5.23038619,0.87538029 C5.66789612,0.63619827 6.1888292,0.436843787 6.79318542,0.277316841 L10.5005603,47.3345827 L0.694339614,47.3345827 C2.18634928,18.9525798 2.95058142,4.43924154 2.98703604,3.79456799 Z" id="Rectangle-14" fill="url(#linearGradient-1)"></path>
                </g>
                <g id="rod-Copy-8" transform="translate(120.000000, 0.000000)">
                    <polygon id="Rectangle-13" fill="#FFFBAC" points="2.99284281 4.02942127 15 4.02942127 12.4568647 61 0 61"></polygon>
                    <ellipse id="Oval-5" fill="#FFFBAC" cx="9" cy="4.09701493" rx="6" ry="4.09701493"></ellipse>
                    <path d="M2.98703604,3.79456799 C3.05213262,3.41572515 3.11814456,3.27684667 3.19890628,3.04313716 C3.27966799,2.80942766 3.54771136,2.3585155 3.80349103,2.04275396 C4.04352096,1.74643556 4.5741213,1.23415332 5.23038619,0.87538029 C5.66789612,0.63619827 6.1888292,0.436843787 6.79318542,0.277316841 L10.5005603,47.3345827 L0.694339614,47.3345827 C2.18634928,18.9525798 2.95058142,4.43924154 2.98703604,3.79456799 Z" id="Rectangle-14" fill="url(#linearGradient-1)"></path>
                </g>
                <g id="rod-Copy-7" transform="translate(105.000000, 0.000000)">
                    <polygon id="Rectangle-13" fill="#FFFBAC" points="2.99284281 4.02942127 15 4.02942127 12.4568647 61 0 61"></polygon>
                    <ellipse id="Oval-5" fill="#FFFBAC" cx="9" cy="4.09701493" rx="6" ry="4.09701493"></ellipse>
                    <path d="M2.98703604,3.79456799 C3.05213262,3.41572515 3.11814456,3.27684667 3.19890628,3.04313716 C3.27966799,2.80942766 3.54771136,2.3585155 3.80349103,2.04275396 C4.04352096,1.74643556 4.5741213,1.23415332 5.23038619,0.87538029 C5.66789612,0.63619827 6.1888292,0.436843787 6.79318542,0.277316841 L10.5005603,47.3345827 L0.694339614,47.3345827 C2.18634928,18.9525798 2.95058142,4.43924154 2.98703604,3.79456799 Z" id="Rectangle-14" fill="url(#linearGradient-1)"></path>
                </g>
                <g id="rod-Copy-6" transform="translate(90.000000, 0.000000)">
                    <polygon id="Rectangle-13" fill="#FFFBAC" points="2.99284281 4.02942127 15 4.02942127 12.4568647 61 0 61"></polygon>
                    <ellipse id="Oval-5" fill="#FFFBAC" cx="9" cy="4.09701493" rx="6" ry="4.09701493"></ellipse>
                    <path d="M2.98703604,3.79456799 C3.05213262,3.41572515 3.11814456,3.27684667 3.19890628,3.04313716 C3.27966799,2.80942766 3.54771136,2.3585155 3.80349103,2.04275396 C4.04352096,1.74643556 4.5741213,1.23415332 5.23038619,0.87538029 C5.66789612,0.63619827 6.1888292,0.436843787 6.79318542,0.277316841 L10.5005603,47.3345827 L0.694339614,47.3345827 C2.18634928,18.9525798 2.95058142,4.43924154 2.98703604,3.79456799 Z" id="Rectangle-14" fill="url(#linearGradient-1)"></path>
                </g>
                <g id="rod-Copy-5" transform="translate(75.000000, 0.000000)">
                    <polygon id="Rectangle-13" fill="#FFFBAC" points="2.99284281 4.02942127 15 4.02942127 12.4568647 61 0 61"></polygon>
                    <ellipse id="Oval-5" fill="#FFFBAC" cx="9" cy="4.09701493" rx="6" ry="4.09701493"></ellipse>
                    <path d="M2.98703604,3.79456799 C3.05213262,3.41572515 3.11814456,3.27684667 3.19890628,3.04313716 C3.27966799,2.80942766 3.54771136,2.3585155 3.80349103,2.04275396 C4.04352096,1.74643556 4.5741213,1.23415332 5.23038619,0.87538029 C5.66789612,0.63619827 6.1888292,0.436843787 6.79318542,0.277316841 L10.5005603,47.3345827 L0.694339614,47.3345827 C2.18634928,18.9525798 2.95058142,4.43924154 2.98703604,3.79456799 Z" id="Rectangle-14" fill="url(#linearGradient-1)"></path>
                </g>
                <g id="rod-Copy-4" transform="translate(60.000000, 0.000000)">
                    <polygon id="Rectangle-13" fill="#FFFBAC" points="2.99284281 4.02942127 15 4.02942127 12.4568647 61 0 61"></polygon>
                    <ellipse id="Oval-5" fill="#FFFBAC" cx="9" cy="4.09701493" rx="6" ry="4.09701493"></ellipse>
                    <path d="M2.98703604,3.79456799 C3.05213262,3.41572515 3.11814456,3.27684667 3.19890628,3.04313716 C3.27966799,2.80942766 3.54771136,2.3585155 3.80349103,2.04275396 C4.04352096,1.74643556 4.5741213,1.23415332 5.23038619,0.87538029 C5.66789612,0.63619827 6.1888292,0.436843787 6.79318542,0.277316841 L10.5005603,47.3345827 L0.694339614,47.3345827 C2.18634928,18.9525798 2.95058142,4.43924154 2.98703604,3.79456799 Z" id="Rectangle-14" fill="url(#linearGradient-1)"></path>
                </g>
                <g id="rod-Copy-3" transform="translate(45.000000, 0.000000)">
                    <polygon id="Rectangle-13" fill="#FFFBAC" points="2.99284281 4.02942127 15 4.02942127 12.4568647 61 0 61"></polygon>
                    <ellipse id="Oval-5" fill="#FFFBAC" cx="9" cy="4.09701493" rx="6" ry="4.09701493"></ellipse>
                    <path d="M2.98703604,3.79456799 C3.05213262,3.41572515 3.11814456,3.27684667 3.19890628,3.04313716 C3.27966799,2.80942766 3.54771136,2.3585155 3.80349103,2.04275396 C4.04352096,1.74643556 4.5741213,1.23415332 5.23038619,0.87538029 C5.66789612,0.63619827 6.1888292,0.436843787 6.79318542,0.277316841 L10.5005603,47.3345827 L0.694339614,47.3345827 C2.18634928,18.9525798 2.95058142,4.43924154 2.98703604,3.79456799 Z" id="Rectangle-14" fill="url(#linearGradient-1)"></path>
                </g>
                <g id="rod-Copy-2" transform="translate(30.000000, 0.000000)">
                    <polygon id="Rectangle-13" fill="#FFFBAC" points="2.99284281 4.02942127 15 4.02942127 12.4568647 61 0 61"></polygon>
                    <ellipse id="Oval-5" fill="#FFFBAC" cx="9" cy="4.09701493" rx="6" ry="4.09701493"></ellipse>
                    <path d="M2.98703604,3.79456799 C3.05213262,3.41572515 3.11814456,3.27684667 3.19890628,3.04313716 C3.27966799,2.80942766 3.54771136,2.3585155 3.80349103,2.04275396 C4.04352096,1.74643556 4.5741213,1.23415332 5.23038619,0.87538029 C5.66789612,0.63619827 6.1888292,0.436843787 6.79318542,0.277316841 L10.5005603,47.3345827 L0.694339614,47.3345827 C2.18634928,18.9525798 2.95058142,4.43924154 2.98703604,3.79456799 Z" id="Rectangle-14" fill="url(#linearGradient-1)"></path>
                </g>
                <g id="rod-Copy" transform="translate(15.000000, 0.000000)">
                    <polygon id="Rectangle-13" fill="#FFFBAC" points="2.99284281 4.02942127 15 4.02942127 12.4568647 61 0 61"></polygon>
                    <ellipse id="Oval-5" fill="#FFFBAC" cx="9" cy="4.09701493" rx="6" ry="4.09701493"></ellipse>
                    <path d="M2.98703604,3.79456799 C3.05213262,3.41572515 3.11814456,3.27684667 3.19890628,3.04313716 C3.27966799,2.80942766 3.54771136,2.3585155 3.80349103,2.04275396 C4.04352096,1.74643556 4.5741213,1.23415332 5.23038619,0.87538029 C5.66789612,0.63619827 6.1888292,0.436843787 6.79318542,0.277316841 L10.5005603,47.3345827 L0.694339614,47.3345827 C2.18634928,18.9525798 2.95058142,4.43924154 2.98703604,3.79456799 Z" id="Rectangle-14" fill="url(#linearGradient-1)"></path>
                </g>
                <g id="rod">
                    <polygon id="Rectangle-13" fill="#FFFBAC" points="2.99284281 4.02942127 15 4.02942127 12.4568647 61 0 61"></polygon>
                    <ellipse id="Oval-5" fill="#FFFBAC" cx="9" cy="4.09701493" rx="6" ry="4.09701493"></ellipse>
                    <path d="M2.98703604,3.79456799 C3.05213262,3.41572515 3.11814456,3.27684667 3.19890628,3.04313716 C3.27966799,2.80942766 3.54771136,2.3585155 3.80349103,2.04275396 C4.04352096,1.74643556 4.5741213,1.23415332 5.23038619,0.87538029 C5.66789612,0.63619827 6.1888292,0.436843787 6.79318542,0.277316841 L10.5005603,47.3345827 L0.694339614,47.3345827 C2.18634928,18.9525798 2.95058142,4.43924154 2.98703604,3.79456799 Z" id="Rectangle-14" fill="url(#linearGradient-1)"></path>
                </g>
            </g>
        </g>
    </g>
</svg>