<?xml version="1.0" encoding="UTF-8"?>
<svg width="398px" height="88px" viewBox="0 0 398 88" version="1.1" xmlns="http://www.w3.org/2000/svg" xmlns:xlink="http://www.w3.org/1999/xlink">
    <!-- Generator: Sketch 49.3 (51167) - http://www.bohemiancoding.com/sketch -->
    <title>start</title>
    <desc>Created with Sketch.</desc>
    <defs>
        <rect id="path-1" x="0" y="0" width="390" height="80" rx="4"></rect>
        <path d="M15.6207569,8.3768997 C19.5536176,7.40214698 23.7853998,9.61317942 27.0803571,9.57189497 C31.2202693,9.52002358 34.3265592,7.44603608 38.5399574,8.3768997 C39.809546,8.3768997 41.7958767,11.5987842 44.4989496,18.0425532 L27.0803571,20.8690005 L9.66176471,18.0425532 C11.5022415,12.9690283 13.4885722,9.74714384 15.6207569,8.3768997 Z" id="path-2"></path>
        <path d="M41.7192254,17.3285494 L43.2225164,16.6592411 C44.0734719,12.6954697 44.4989496,9.50272063 44.4989496,7.08099389 C44.4989496,4.94108632 43.8927079,3.53874296 42.6802245,2.87396379 C40.423376,2.75367848 38.7405662,3.09655682 37.6317951,3.90259882 C36.3827917,4.81058527 35.428763,6.28454349 34.7697091,8.32447349 L33.1750208,8.60457427 C33.8483705,6.1399479 35.0441189,4.2323608 36.7622659,2.88181295 C37.9972375,1.91106475 39.9824069,0.989919202 42.034629,1.18273782 C44.0868512,1.37555644 43.9180373,1.52709665 44.2810454,1.82929526 C44.3255932,1.86638061 44.3538427,1.90920528 44.3657939,1.9577693 C45.5102366,2.98876676 46.082458,4.73776645 46.082458,7.20476837 C46.082458,9.93407091 45.5582004,13.5314411 44.5096854,17.996879 C45.4068391,27.6464177 45.8228061,33.265133 41.6486345,45.2674772 C35.7514961,47.0485583 23.8948732,46.9832937 12.5120798,45.2674772 C9.67312292,37.0831745 8.45949265,28.4985762 9.64739156,18.0074703 C8.48943881,15.1756631 7.91046244,12.4487556 7.91046244,9.82674772 C7.91046244,7.21114714 8.48661263,4.49115894 9.63891303,1.66678312 C9.62355003,1.64610088 9.60818091,1.62490512 9.59280567,1.60319586 L10.6295603,0.484765251 C11.5806541,-0.247720509 12.6803552,-0.00321946225 13.9286636,1.21826839 C15.176972,2.43975625 16.7286912,4.78970839 18.5838212,8.26812483 L16.7454364,8.25250914 C15.770876,5.75042221 14.6683358,3.93417509 13.4378159,2.80376778 C12.7267096,2.15051571 12.772818,1.90327258 12.0270757,1.75481081 C11.4384774,1.63763314 11.3130894,1.94328346 11.0118307,2.14387529 C9.92764911,4.70483276 9.3855583,7.26579024 9.3855583,9.82674772 C9.3855583,12.0217289 9.78378366,14.2167101 10.5802344,16.4116913 L12.6760543,17.4895669 C16.9193365,17.547408 21.7554333,19.6740117 26.9411103,19.7826594 C31.4901818,19.8779693 36.6715435,16.9957527 41.7192254,17.3285494 Z" id="path-3"></path>
        <rect id="path-4" x="18.5294118" y="45.106383" width="2.37526261" height="7.7325228"></rect>
        <rect id="path-5" x="32.9393382" y="45.106383" width="2.37526261" height="7.7325228"></rect>
        <rect id="path-6" x="15.362395" y="50.7446809" width="5.54227941" height="2.09422492"></rect>
        <rect id="path-7" x="32.9393382" y="50.7446809" width="5.54227941" height="2.09422492"></rect>
        <rect id="path-8" x="0.409201493" y="28.9853944" width="15.2016807" height="2.5775076"></rect>
        <rect id="path-9" x="39.0468065" y="28.9853944" width="15.2016807" height="2.5775076"></rect>
    </defs>
    <g id="Screens" stroke="none" stroke-width="1" fill="none" fill-rule="evenodd">
        <g id="Start" transform="translate(-211.000000, -358.000000)">
            <g id="buttons" transform="translate(215.000000, 362.000000)">
                <g id="start">
                    <g id="bg">
                        <use fill="#7F4C1E" fill-rule="evenodd" xlink:href="#path-1"></use>
                        <rect stroke="#643710" stroke-width="4" x="-2" y="-2" width="394" height="84" rx="4"></rect>
                    </g>
                    <path d="M167.68,32.68 C165.75999,31.9199962 164.160006,31.3100023 162.88,30.85 C161.599994,30.3899977 160.510004,30.0300013 159.61,29.77 C158.709995,29.5099987 157.930003,29.3400004 157.27,29.26 C156.609997,29.1799996 155.960003,29.14 155.32,29.14 C153.959993,29.14 152.710006,29.4599968 151.57,30.1 C150.429994,30.7400032 149.400005,31.6399942 148.48,32.8 C148.760001,33.1600018 149.069998,33.4899985 149.41,33.79 C149.750002,34.0900015 150.219997,34.4299981 150.82,34.81 C151.420003,35.1900019 152.189995,35.6299975 153.13,36.13 C154.070005,36.6300025 155.279993,37.2599962 156.76,38.02 C158.440008,38.8600042 159.809995,39.5899969 160.87,40.21 C161.930005,40.8300031 162.759997,41.3999974 163.36,41.92 C163.960003,42.4400026 164.379999,42.9199978 164.62,43.36 C164.860001,43.8000022 164.98,44.2599976 164.98,44.74 C164.98,45.9000058 164.510005,47.0899939 163.57,48.31 C162.629995,49.5300061 161.400008,50.6499949 159.88,51.67 C158.359992,52.6900051 156.64001,53.5299967 154.72,54.19 C152.79999,54.8500033 150.86001,55.18 148.9,55.18 C147.979995,55.18 146.980005,55.1000008 145.9,54.94 C144.819995,54.7799992 143.710006,54.5500015 142.57,54.25 C141.429994,53.9499985 140.300006,53.5900021 139.18,53.17 C138.059994,52.7499979 137.000005,52.2800026 136,51.76 L139.42,47.08 C141.860012,48.1200052 144.11999,48.9499969 146.2,49.57 C148.28001,50.1900031 150.119992,50.5 151.72,50.5 C155.040017,50.5 157.779989,49.200013 159.94,46.6 C157.89999,45.2799934 155.92001,44.1100051 154,43.09 C152.07999,42.0699949 150.320008,41.160004 148.72,40.36 C147.639995,39.8399974 146.740004,39.3500023 146.02,38.89 C145.299996,38.4299977 144.710002,37.9600024 144.25,37.48 C143.789998,36.9999976 143.470001,36.5100025 143.29,36.01 C143.109999,35.5099975 143.02,34.9400032 143.02,34.3 C143.02,33.4599958 143.449996,32.5000054 144.31,31.42 C145.170004,30.3399946 146.289993,29.3300047 147.67,28.39 C149.050007,27.4499953 150.619991,26.6600032 152.38,26.02 C154.140009,25.3799968 155.899991,25.06 157.66,25.06 C160.020012,25.06 162.259989,25.2999976 164.38,25.78 C166.500011,26.2600024 168.819987,27.1199938 171.34,28.36 L167.68,32.68 Z M201.16,30.16 C199.319991,30.560002 197.490009,30.859999 195.67,31.06 C193.849991,31.260001 191.800011,31.3999996 189.52,31.48 L192.94,32.8 C191.899995,34.7200096 191.020004,36.6899899 190.3,38.71 C189.579996,40.7300101 189.030002,42.6799906 188.65,44.56 C188.269998,46.4400094 188.06,48.179992 188.02,49.78 C187.98,51.380008 188.119998,52.7199946 188.44,53.8 L180.34,55.48 C180.38,53.5999906 180.609998,51.6100105 181.03,49.51 C181.450002,47.4099895 181.989997,45.3100105 182.65,43.21 C183.310003,41.1099895 184.049996,39.06001 184.87,37.06 C185.690004,35.05999 186.519996,33.2200084 187.36,31.54 C185.43999,31.54 183.640008,31.4500009 181.96,31.27 C180.279992,31.0899991 178.540009,30.8200018 176.74,30.46 L179.2,25.96 C181.880013,26.6400034 184.869983,27.0099997 188.17,27.07 C191.470016,27.1300003 195.399977,26.860003 199.96,26.26 C200.640003,26.1799996 201.099999,26.1100003 201.34,26.05 C201.580001,25.9899997 201.779999,25.96 201.94,25.96 L203.14,25.96 L201.16,30.16 Z M231.58,55.06 C230.859996,53.3799916 230.280002,51.7700077 229.84,50.23 C229.399998,48.6899923 229.060001,46.9400098 228.82,44.98 C227.539994,44.579998 226.250006,44.3300005 224.95,44.23 C223.649993,44.1299995 222.04001,44.1199996 220.12,44.2 C218.359991,46.400011 216.840006,48.2099929 215.56,49.63 C214.279994,51.0500071 213.180005,52.1699959 212.26,52.99 C211.339995,53.8100041 210.590003,54.3799984 210.01,54.7 C209.429997,55.0200016 208.980002,55.18 208.66,55.18 C207.379994,55.18 206.74,54.0000118 206.74,51.64 C206.74,50.8799962 206.829999,50.200003 207.01,49.6 C207.190001,48.999997 207.569997,48.4200028 208.15,47.86 C208.730003,47.2999972 209.529995,46.7100031 210.55,46.09 C211.570005,45.4699969 212.919992,44.760004 214.6,43.96 C215.400004,43.559998 216.019998,43.2000016 216.46,42.88 C216.900002,42.5599984 217.339998,42.1800022 217.78,41.74 C219.100007,40.4199934 220.319994,39.0800068 221.44,37.72 C222.560006,36.3599932 223.539996,35.0300065 224.38,33.73 C225.220004,32.4299935 225.889997,31.2000058 226.39,30.04 C226.890002,28.8799942 227.18,27.8200048 227.26,26.86 C228.660007,26.6199988 229.959994,26.3600014 231.16,26.08 C232.360006,25.7999986 233.679993,25.4400022 235.12,25 C234.799998,26.4400072 234.550001,28.0299913 234.37,29.77 C234.189999,31.5100087 234.1,33.1399924 234.1,34.66 C234.1,37.060012 234.169999,39.1699909 234.31,40.99 C234.450001,42.8100091 234.669999,44.4599926 234.97,45.94 C235.270002,47.4200074 235.649998,48.7799938 236.11,50.02 C236.570002,51.2600062 237.119997,52.479994 237.76,53.68 L231.58,55.06 Z M229.06,30.1 C228.139995,32.1400102 227.090006,34.1499901 225.91,36.13 C224.729994,38.1100099 223.300008,40.0599904 221.62,41.98 C222.780006,41.8199992 223.879995,41.7200002 224.92,41.68 C225.960005,41.6399998 227.179993,41.6599996 228.58,41.74 L228.58,39.04 C228.58,37.8799942 228.62,36.4500085 228.7,34.75 C228.78,33.0499915 228.899999,31.500007 229.06,30.1 Z M276.34,31.42 C276.34,33.4600102 275.160012,35.3399914 272.8,37.06 C270.439988,38.7800086 266.980023,40.1599948 262.42,41.2 C262.580001,41.8400032 263.019996,42.659995 263.74,43.66 C264.460004,44.660005 265.319995,45.6999946 266.32,46.78 C267.320005,47.8600054 268.389994,48.899995 269.53,49.9 C270.670006,50.900005 271.759995,51.7199968 272.8,52.36 L266.5,55.54 C265.099993,54.4199944 263.770006,53.1700069 262.51,51.79 C261.249994,50.4099931 260.150005,49.0500067 259.21,47.71 C258.269995,46.3699933 257.520003,45.1500055 256.96,44.05 C256.399997,42.9499945 256.12,42.1400026 256.12,41.62 C256.12,41.0599972 256.459997,40.680001 257.14,40.48 C259.620012,39.7999966 261.639992,39.1400032 263.2,38.5 C264.760008,37.8599968 265.989995,37.1900035 266.89,36.49 C267.790005,35.7899965 268.399998,35.0300041 268.72,34.21 C269.040002,33.3899959 269.2,32.4600052 269.2,31.42 C269.2,30.9399976 269.050002,30.5600014 268.75,30.28 C268.449998,29.9999986 267.800005,29.6800018 266.8,29.32 C263.559984,30.8400076 260.840011,32.7399886 258.64,35.02 C256.439989,37.3000114 254.880005,39.939985 253.96,42.94 C253.519998,44.3000068 252.990003,45.8399914 252.37,47.56 C251.749997,49.2800086 251.040004,51.1599898 250.24,53.2 C249.879998,54.1200046 249.540002,54.7399984 249.22,55.06 C248.899998,55.3800016 248.540002,55.54 248.14,55.54 C247.699998,55.54 247.190003,55.3600018 246.61,55 C246.029997,54.6399982 245.490003,54.2100025 244.99,53.71 C244.489998,53.2099975 244.060002,52.6700029 243.7,52.09 C243.339998,51.5099971 243.16,51.0000022 243.16,50.56 C243.16,50.2399984 243.219999,49.9200016 243.34,49.6 C243.460001,49.2799984 243.719998,48.8000032 244.12,48.16 C244.520002,47.5199968 245.119996,46.6500055 245.92,45.55 C246.720004,44.4499945 247.799993,42.9800092 249.16,41.14 C249.440001,40.7799982 249.689999,40.3400026 249.91,39.82 C250.130001,39.2999974 250.319999,38.5300051 250.48,37.51 C250.640001,36.4899949 250.76,35.1400084 250.84,33.46 C250.92,31.7799916 250.96,29.6000134 250.96,26.92 L258.64,25.42 C258.439999,26.7800068 258.190001,28.0999936 257.89,29.38 C257.589998,30.6600064 257.280002,31.9199938 256.96,33.16 C259.520013,30.4799866 261.689991,28.5200062 263.47,27.28 C265.250009,26.0399938 266.899992,25.42 268.42,25.42 C269.380005,25.42 270.329995,25.619998 271.27,26.02 C272.210005,26.420002 273.059996,26.919997 273.82,27.52 C274.580004,28.120003 275.189998,28.7699965 275.65,29.47 C276.110002,30.1700035 276.34,30.819997 276.34,31.42 Z M306.16,30.16 C304.319991,30.560002 302.490009,30.859999 300.67,31.06 C298.849991,31.260001 296.800011,31.3999996 294.52,31.48 L297.94,32.8 C296.899995,34.7200096 296.020004,36.6899899 295.3,38.71 C294.579996,40.7300101 294.030002,42.6799906 293.65,44.56 C293.269998,46.4400094 293.06,48.179992 293.02,49.78 C292.98,51.380008 293.119998,52.7199946 293.44,53.8 L285.34,55.48 C285.38,53.5999906 285.609998,51.6100105 286.03,49.51 C286.450002,47.4099895 286.989997,45.3100105 287.65,43.21 C288.310003,41.1099895 289.049996,39.06001 289.87,37.06 C290.690004,35.05999 291.519996,33.2200084 292.36,31.54 C290.43999,31.54 288.640008,31.4500009 286.96,31.27 C285.279992,31.0899991 283.540009,30.8200018 281.74,30.46 L284.2,25.96 C286.880013,26.6400034 289.869983,27.0099997 293.17,27.07 C296.470016,27.1300003 300.399977,26.860003 304.96,26.26 C305.640003,26.1799996 306.099999,26.1100003 306.34,26.05 C306.580001,25.9899997 306.779999,25.96 306.94,25.96 L308.14,25.96 L306.16,30.16 Z" id="START" fill="#FFFFFF"></path>
                    <g id="bag" transform="translate(60.000000, 12.000000)">
                        <g id="Path">
                            <use fill="#FFFFFF" fill-rule="evenodd" xlink:href="#path-2"></use>
                            <path stroke="#000000" stroke-width="0.5" d="M15.721242,8.60967588 C13.6985899,9.93041022 11.7842358,13.0092829 10.0004327,17.8444614 L27.0403144,20.6222282 L44.1452187,17.8466818 C41.5621886,11.7352542 39.6280478,8.62680794 38.4860256,8.62101311 C36.652941,8.2160308 35.0878905,8.334738 32.6508516,8.89206985 C32.4140009,8.94623576 32.2967935,8.973802 31.7714287,9.09818422 C29.5875796,9.61521928 28.5000302,9.80412667 27.0834893,9.82187535 C25.9292952,9.83633692 25.0886906,9.68387994 22.5357188,9.09405242 C20.656461,8.65987685 19.6369804,8.47215838 18.4942935,8.4013178 C17.4917656,8.33916634 16.5790505,8.40204253 15.721242,8.60967588 Z"></path>
                        </g>
                        <g id="Combined-Shape">
                            <use fill="#F1F1F1" fill-rule="evenodd" xlink:href="#path-3"></use>
                            <path stroke="#000000" stroke-width="0.5" d="M16.9163927,8.00395227 L18.1640858,8.01455047 C16.4081251,4.76083093 14.9348764,2.55263813 13.7538169,1.39695424 C12.585243,0.253487757 11.618634,0.0385776187 10.8129048,0.654720566 L9.91671251,1.62151524 L9.92360297,1.63079144 L9.87038945,1.76122182 C8.72987894,4.55669973 8.16046244,7.24489836 8.16046244,9.82674772 C8.16046244,12.4149299 8.73267604,15.1099856 9.87879301,17.912848 L9.8958042,18.0355978 C8.77740213,27.912932 9.73457829,36.4339981 12.6989099,45.0427167 C24.0755576,46.7426152 35.6600441,46.7653854 41.454504,45.0644354 C45.0458547,34.7098177 45.3821638,30.0810027 44.2663046,17.9397316 C45.3107937,13.4914399 45.832458,9.91186408 45.832458,7.20476837 C45.832458,4.80206501 45.282026,3.11966456 44.1984632,2.14351219 L44.1230367,2.01750986 C44.1243849,2.02298832 44.1261125,2.02560728 44.1210956,2.02143078 C44.0601294,1.97067733 44.0103614,1.92283563 43.9367568,1.84953442 C43.7841815,1.70230264 43.6241171,1.63819977 43.0407528,1.55054855 C42.7780266,1.5110736 42.4411544,1.47203437 42.011243,1.43164161 C40.2535676,1.26649742 38.345327,1.95543837 36.916762,3.07836057 C35.3318828,4.32415335 34.2017377,6.05873377 33.5259791,8.28910266 L34.5789516,8.10415213 C35.2514831,6.09116554 36.2186057,4.6208637 37.4847923,3.70038557 C38.6473972,2.85520814 40.3845614,2.50125491 42.6935301,2.62431812 L42.8004145,2.6547507 C44.1055589,3.37033396 44.7489496,4.85860957 44.7489496,7.08099389 C44.7489496,9.52305294 44.321293,12.7321521 43.4669471,16.7117163 L43.4402768,16.835947 L41.8209095,17.5569358 L41.7027784,17.5780078 C40.8782999,17.5236495 40.0177088,17.5544267 39.0976747,17.6634262 C37.646084,17.8354009 36.3950539,18.1209974 33.9212172,18.7848358 C30.2090342,19.7809766 28.7822174,20.0712882 26.9358735,20.0326045 C24.7581093,19.9869771 22.8814612,19.6655914 19.4879903,18.8812458 C15.6276841,17.9889989 14.4158673,17.7633059 12.6726468,17.7395437 L12.5617151,17.7118878 L10.4658952,16.6340121 L10.3452268,16.496964 C9.53900903,14.2750653 9.1355583,12.0512824 9.1355583,9.82674772 C9.1355583,7.23156674 9.68464094,4.63757831 10.7816115,2.04641195 L10.873274,1.9357839 C10.9147628,1.90815877 10.9540323,1.87700179 11.0124674,1.82655373 C11.0407255,1.80203908 11.0407255,1.80203908 11.0704762,1.77621929 C11.3782615,1.51033447 11.6296656,1.4207888 12.0758876,1.50962232 C12.4764813,1.58937218 12.704059,1.70210456 12.9306638,1.92124423 C12.9431146,1.93328484 13.3861366,2.41681703 13.6069445,2.6196605 C14.8432843,3.7554141 15.9442559,5.55027264 16.9163927,8.00395227 Z"></path>
                        </g>
                        <g id="Rectangle-8">
                            <use fill="#F1F1F1" fill-rule="evenodd" xlink:href="#path-4"></use>
                            <rect stroke="#000000" stroke-width="0.5" x="18.7794118" y="45.356383" width="1.87526261" height="7.2325228"></rect>
                        </g>
                        <g id="Rectangle-8-Copy">
                            <use fill="#F1F1F1" fill-rule="evenodd" xlink:href="#path-5"></use>
                            <rect stroke="#000000" stroke-width="0.5" x="33.1893382" y="45.356383" width="1.87526261" height="7.2325228"></rect>
                        </g>
                        <g id="Rectangle-9">
                            <use fill="#D8D8D8" fill-rule="evenodd" xlink:href="#path-6"></use>
                            <rect stroke="#000000" stroke-width="0.5" x="15.612395" y="50.9946809" width="5.04227941" height="1.59422492"></rect>
                        </g>
                        <g id="Rectangle-9-Copy">
                            <use fill="#D8D8D8" fill-rule="evenodd" xlink:href="#path-7"></use>
                            <rect stroke="#000000" stroke-width="0.5" x="33.1893382" y="50.9946809" width="5.04227941" height="1.59422492"></rect>
                        </g>
                        <g id="Rectangle-10" transform="translate(8.010042, 30.274148) rotate(-30.000000) translate(-8.010042, -30.274148) ">
                            <use fill="#D8D8D8" fill-rule="evenodd" xlink:href="#path-8"></use>
                            <rect stroke="#000000" stroke-width="0.5" x="0.659201493" y="29.2353944" width="14.7016807" height="2.0775076"></rect>
                        </g>
                        <g id="Rectangle-10-Copy" transform="translate(46.647647, 30.274148) rotate(-330.000000) translate(-46.647647, -30.274148) ">
                            <use fill="#D8D8D8" fill-rule="evenodd" xlink:href="#path-9"></use>
                            <rect stroke="#000000" stroke-width="0.5" x="39.2968065" y="29.2353944" width="14.7016807" height="2.0775076"></rect>
                        </g>
                    </g>
                </g>
            </g>
        </g>
    </g>
</svg>