<?xml version="1.0" encoding="UTF-8"?>
<svg width="488px" height="240px" viewBox="0 0 488 240" version="1.1" xmlns="http://www.w3.org/2000/svg" xmlns:xlink="http://www.w3.org/1999/xlink">
    <!-- Generator: Sketch 49.3 (51167) - http://www.bohemiancoding.com/sketch -->
    <title>title</title>
    <desc>Created with Sketch.</desc>
    <defs></defs>
    <g id="Screens" stroke="none" stroke-width="1" fill="none" fill-rule="evenodd">
        <g id="Start" transform="translate(-131.000000, -75.000000)" fill="#FFFFFF" stroke="#4A7968">
            <g id="title" transform="translate(133.000000, 77.000000)">
                <g id="Group">
                    <path d="M265.08,105.64 C265.933338,107.240008 266.306667,108.41333 266.2,109.16 C266.093333,109.90667 265.560005,110.813328 264.6,111.88 C262.466656,114.120011 260.786673,115.959993 259.56,117.4 C258.333327,118.840007 257.42667,120.013329 256.84,120.92 C256.25333,121.826671 255.880001,122.546664 255.72,123.08 C255.559999,123.613336 255.48,124.039998 255.48,124.36 C255.48,126.920013 255.933329,129.773318 256.84,132.92 C257.746671,136.066682 259.053325,138.706656 260.76,140.84 L246.84,142.92 C245.453326,141.106658 244.38667,139.106678 243.64,136.92 C242.89333,134.733322 242.413334,131.93335 242.2,128.52 C238.039979,131.400014 234.440015,133.79999 231.4,135.72 C228.359985,137.64001 225.720011,139.159994 223.48,140.28 C221.239989,141.400006 219.266675,142.173331 217.56,142.6 C215.853325,143.026669 214.200008,143.24 212.6,143.24 C210.999992,143.24 209.266676,142.86667 207.4,142.12 C205.533324,141.37333 203.853341,140.413339 202.36,139.24 C200.866659,138.066661 199.613338,136.786674 198.6,135.4 C197.586662,134.013326 197.08,132.680006 197.08,131.4 C197.08,129.159989 198.199989,126.70668 200.44,124.04 C202.680011,121.37332 205.959978,118.653347 210.28,115.88 C214.600022,113.106653 219.959968,110.360014 226.36,107.64 C232.760032,104.919986 240.119958,102.386678 248.44,100.04 C243.959978,98.5466592 238.626698,97.8799992 232.44,98.04 C226.253302,98.2000008 219.320038,99.346656 211.64,101.48 L212.76,94.28 C219.266699,92.146656 225.693302,90.946668 232.04,90.68 C238.386698,90.413332 243.799978,90.7599952 248.28,91.72 C250.840013,92.253336 252.919992,92.8666632 254.52,93.56 C256.120008,94.2533368 257.506661,95.1599944 258.68,96.28 C259.853339,97.4000056 260.919995,98.7066592 261.88,100.2 C262.840005,101.693341 263.906661,103.506656 265.08,105.64 Z M246.52,106.44 C236.173282,110.386686 228.33336,114.466646 223,118.68 C217.66664,122.893354 213.933344,127.29331 211.8,131.88 L218.04,135.24 C222.093354,133.639992 226.279978,131.613346 230.6,129.16 C234.920022,126.706654 238.78665,124.040014 242.2,121.16 C242.733336,119.666659 243.613327,117.96001 244.84,116.04 C246.066673,114.11999 247.906654,111.560016 250.36,108.36 L246.52,106.44 Z M336.76,104.52 C331.319973,101.746653 326.626686,99.8000056 322.68,98.68 C318.733314,97.5599944 315.213349,97 312.12,97 C309.45332,97 306.680014,98.9199808 303.8,102.76 C305.933344,104.040006 308.173322,105.293327 310.52,106.52 C312.866678,107.746673 315.74665,109.213325 319.16,110.92 C322.680018,112.626675 325.47999,114.199993 327.56,115.64 C329.64001,117.080007 331.133329,118.493326 332.04,119.88 C332.946671,121.266674 333.346667,122.679993 333.24,124.12 C333.133333,125.560007 332.653338,127.133325 331.8,128.84 C330.413326,131.720014 328.973341,134.11999 327.48,136.04 C325.986659,137.96001 324.28001,139.479994 322.36,140.6 C320.43999,141.720006 318.280012,142.493331 315.88,142.92 C313.479988,143.346669 310.680016,143.56 307.48,143.56 C302.999978,143.56 298.493356,142.973339 293.96,141.8 C289.426644,140.626661 284.440027,138.70668 279,136.04 L285.56,125.64 C290.040022,127.880011 294.839974,129.693326 299.96,131.08 C305.080026,132.466674 309.506648,133.16 313.24,133.16 C316.013347,133.16 317.879995,132.946669 318.84,132.52 C319.800005,132.093331 320.599997,131.133341 321.24,129.64 C321.453334,129.106664 321.533334,128.626669 321.48,128.2 C321.426666,127.773331 321.133336,127.26667 320.6,126.68 C320.066664,126.09333 319.213339,125.42667 318.04,124.68 C316.866661,123.93333 315.213344,123.026672 313.08,121.96 C308.706645,119.933323 305.133347,118.093342 302.36,116.44 C299.586653,114.786658 297.400008,113.240007 295.8,111.8 C294.199992,110.359993 293.080003,109.053339 292.44,107.88 C291.799997,106.706661 291.48,105.640005 291.48,104.68 C291.48,103.399994 292.093327,101.773343 293.32,99.8 C294.546673,97.8266568 296.253322,95.906676 298.44,94.04 C300.626678,92.173324 303.213318,90.57334 306.2,89.24 C309.186682,87.90666 312.439982,87.24 315.96,87.24 C319.053349,87.24 322.97331,87.8533272 327.72,89.08 C332.46669,90.3066728 338.039968,92.4133184 344.44,95.4 L336.76,104.52 Z M405.72,101.32 L384.44,101.64 C382.199989,107.72003 380.626671,112.679981 379.72,116.52 C378.813329,120.360019 378.36,123.666653 378.36,126.44 L378.36,128.84 C378.36,129.693338 378.466666,130.599995 378.68,131.56 L382.52,133.64 C383.906674,133.426666 385.186661,133.213334 386.36,133 C387.533339,132.786666 388.679994,132.546668 389.8,132.28 C390.920006,132.013332 392.14666,131.720002 393.48,131.4 C394.81334,131.079998 396.43999,130.653336 398.36,130.12 C397.933331,132.253344 397.320004,133.826662 396.52,134.84 C395.719996,135.853338 394.146678,136.893328 391.8,137.96 C387.319978,139.88001 383.773346,141.21333 381.16,141.96 C378.546654,142.70667 376.333342,143.08 374.52,143.08 C372.59999,143.08 370.840008,142.600005 369.24,141.64 C367.639992,140.679995 366.280006,139.506674 365.16,138.12 C364.039994,136.733326 363.160003,135.240008 362.52,133.64 C361.879997,132.039992 361.56,130.600006 361.56,129.32 C361.56,126.546653 362.279993,123.080021 363.72,118.92 C365.160007,114.759979 367.639982,109.05337 371.16,101.8 L358.84,101.96 L361.4,95.24 L374.84,94.92 L380.76,83.72 L394.36,80.36 L387.16,94.92 L408.28,94.6 L405.72,101.32 Z M483.32,99.88 C483.32,102.973349 482.706673,105.533323 481.48,107.56 C480.253327,109.586677 477.93335,111.319993 474.52,112.76 C471.10665,114.200007 466.386697,115.453328 460.36,116.52 C454.333303,117.586672 446.520048,118.759994 436.92,120.04 C437.133334,122.173344 438.013326,124.493321 439.56,127 C441.106674,129.506679 443.106654,131.506659 445.56,133 C448.653349,132.359997 451.559986,131.720003 454.28,131.08 C457.000014,130.439997 459.639987,129.74667 462.2,129 C464.760013,128.25333 467.346654,127.400005 469.96,126.44 C472.573346,125.479995 475.319986,124.360006 478.2,123.08 L477.72,127.4 C477.613333,128.14667 477.426668,128.81333 477.16,129.4 C476.893332,129.98667 476.226672,130.599997 475.16,131.24 C474.093328,131.880003 472.493344,132.653329 470.36,133.56 C468.226656,134.466671 465.240019,135.613326 461.4,137 C457.453314,138.493341 453.453354,139.719995 449.4,140.68 C445.346646,141.640005 442.093346,142.12 439.64,142.12 C437.399989,142.12 435.080012,141.613338 432.68,140.6 C430.279988,139.586662 428.093343,138.333341 426.12,136.84 C424.146657,135.346659 422.546673,133.720009 421.32,131.96 C420.093327,130.199991 419.48,128.520008 419.48,126.92 C419.48,125.426659 419.639998,124.01334 419.96,122.68 C420.280002,121.34666 420.839996,119.826675 421.64,118.12 C422.440004,116.413325 423.586659,114.386678 425.08,112.04 L430.68,103.24 C433.453347,99.1866464 438.013302,95.8000136 444.36,93.08 C450.706698,90.3599864 458.733285,89 468.44,89 C473.986694,89 477.853322,89.7466592 480.04,91.24 C482.226678,92.7333408 483.32,95.613312 483.32,99.88 Z M467,95.08 L450.2,97.16 C448.066656,99.9333472 446.120009,102.573321 444.36,105.08 C442.599991,107.586679 440.706677,110.54665 438.68,113.96 C444.76003,113.426664 449.666648,112.840003 453.4,112.2 C457.133352,111.559997 459.986657,110.760005 461.96,109.8 C463.933343,108.839995 465.266663,107.720006 465.96,106.44 C466.653337,105.159994 467,103.613342 467,101.8 L467,95.08 Z" id="Waste" stroke-width="4"></path>
                    <path d="M231.88,6.02737841 C231.88,8.04453361 231.375719,10.6117835 230.367141,13.7292052 C229.358564,16.8466269 227.387282,20.9725643 224.453238,26.1071412 C221.519195,31.241718 217.484945,37.7056866 212.350368,45.4992408 C207.215791,53.292795 200.430916,62.782451 191.99554,73.9684935 C187.044341,80.9368478 180.855435,88.4552226 173.428636,96.5238434 C166.001837,104.592464 158.529306,112.110839 151.010819,119.079193 C143.492331,126.047548 136.569925,131.869704 130.243393,136.545836 C123.91686,141.221969 119.470017,143.56 116.902728,143.56 C114.518818,143.56 111.85988,142.643125 108.925836,140.809348 C105.991792,138.97557 103.287011,136.77507 100.811412,134.207782 C98.3358121,131.640493 96.2269996,128.889868 94.484911,125.955824 C92.7428224,123.021781 91.8717912,120.546218 91.8717912,118.529063 C91.8717912,115.044886 91.917635,111.652448 92.0093238,108.351649 C92.1010127,105.050849 92.3302315,101.658412 92.696987,98.1742349 C93.0637424,94.6900577 93.5221799,90.9767141 94.0723132,87.0340925 C94.6224464,83.091471 95.3559464,78.7363149 96.2728351,73.9684935 C95.7227019,75.9856487 94.1640144,79.0571798 91.596726,83.1831791 C89.0294375,87.3091784 85.8662189,91.939397 82.1069751,97.0739739 C78.3477313,102.208551 74.2676377,107.526426 69.8665718,113.027758 C65.4655059,118.52909 61.0186622,123.480215 56.5259075,127.881281 C52.0331527,132.282347 47.8155278,135.949847 43.8729063,138.883891 C39.9302848,141.817935 36.6753786,143.284935 34.1080902,143.284935 C31.5408017,143.284935 28.3317393,142.092997 24.4808066,139.709087 C20.629874,137.325176 16.9165303,134.207801 13.3406643,130.356868 C9.76479825,126.505936 6.64742334,122.242467 3.98844603,117.566335 C1.32946871,112.890202 0,108.351671 0,103.950605 C0,84.1458084 9.26043725,53.8889343 27.7815896,13.1790747 L66.5657888,5.47724792 C61.7979675,13.9126242 57.0302176,22.8521552 52.2623962,32.2961091 C47.4945748,41.740063 43.1852624,51.0921878 39.3343298,60.3527639 C35.4833971,69.6133401 32.3660222,78.4153399 29.9821115,86.7590273 C27.5982008,95.1027147 26.4062633,102.391871 26.4062633,108.626714 C26.4062633,113.211158 30.6238882,117.52047 39.0592645,121.554781 C41.9933085,118.987492 44.6980896,116.603617 47.1736892,114.403084 C49.6492888,112.202551 52.0331637,109.956208 54.3253855,107.663986 C56.6176073,105.371764 58.9556385,102.896202 61.3395492,100.237224 C63.7234599,97.5782469 66.3823974,94.4150282 69.3164413,90.7474733 C76.2847956,81.9453415 82.1527955,73.9226855 86.9206168,66.6792645 C91.6884382,59.4358436 94.9891881,52.971875 96.8229656,47.2871649 C99.7570095,38.1182776 101.865822,31.837684 103.149466,28.4451957 C104.43311,25.0527074 105.625048,22.6229888 106.725314,21.1559668 C108.192336,19.3221893 110.530368,17.4884394 113.739478,15.6546619 C116.948589,13.8208845 120.524401,12.2163533 124.467023,10.8410202 C128.409644,9.46568707 132.535581,8.3654371 136.844958,7.54023725 C141.154336,6.71503739 145.234429,6.30244365 149.085362,6.30244365 C153.30305,6.30244365 155.411862,7.86113111 155.411862,10.9785528 C155.411862,12.0788193 155.274331,13.1790692 154.999265,14.2793357 C154.724198,15.3796022 154.082385,16.7090709 153.073808,18.2677817 C152.06523,19.8264926 150.735762,21.6602425 149.085362,23.7690866 C147.434962,25.8779307 145.234462,28.5827118 142.483796,31.8835113 C137.899352,37.3848436 134.32354,41.9692185 131.756251,45.6367734 C129.188963,49.3043283 127.171838,52.834297 125.704816,56.2267853 C124.237794,59.6192736 123.183388,63.1492422 122.541566,66.8167972 C121.899744,70.4843521 121.303775,74.8853519 120.753642,80.0199288 C120.203509,84.6043725 119.97429,90.0597786 120.065979,96.3863108 C120.157668,102.712843 120.478574,109.726937 121.028707,117.428802 C125.979906,114.494758 130.701812,111.469071 135.194567,108.351649 C139.687322,105.234227 144.363384,101.566727 149.222894,97.3490391 C154.082405,93.131351 159.308592,88.0885386 164.901613,82.2204508 C170.494635,76.3523629 176.958603,69.1090506 184.293713,60.4902966 C187.411135,57.0061194 189.382416,54.1179632 190.207616,51.8257414 C191.032816,49.5335196 190.986972,46.5536759 190.070083,42.886121 C188.786439,37.3847886 187.915408,32.937945 187.456963,29.5454567 C186.998519,26.1529684 187.044363,23.3564997 187.594496,21.1559668 C188.144629,18.9554338 189.244879,17.1216839 190.895279,15.6546619 C192.545678,14.18764 194.929553,12.537265 198.046975,10.7034875 C200.06413,9.41984332 202.356318,8.18206211 204.923606,6.99010676 C207.490895,5.79815141 210.103988,4.74374519 212.762966,3.82685647 C215.421943,2.90996774 217.943349,2.17646776 220.32726,1.62633452 C222.71117,1.07620128 224.728295,0.80113879 226.378695,0.80113879 C230.04625,0.80113879 231.88,2.54320124 231.88,6.02737841 Z" id="Path" stroke-width="4"></path>
                    <path d="M222.855094,204.344345 C222.855094,207.447346 222.048326,210.25552 220.434766,212.76895 C218.821205,215.282381 216.866344,217.42342 214.570123,219.19213 C212.273903,220.96084 209.900143,222.32614 207.448772,223.288071 C204.997401,224.250001 202.933937,224.730959 201.258316,224.730959 C198.962096,224.730959 194.680019,222.838157 188.411957,219.052496 C186.612217,220.666056 185.153828,221.891723 184.036748,222.729533 C182.919668,223.567343 181.957752,224.063816 181.150971,224.218966 C180.344191,224.374116 179.599482,224.234483 178.916822,223.800063 C178.234162,223.365643 177.458423,222.682993 176.589583,221.752093 C175.100143,220.200592 174.262345,219.052499 174.076165,218.307779 C173.889985,217.563059 174.045133,216.756291 174.541613,215.887451 C178.699634,208.750549 182.128398,202.017138 184.828009,195.687016 C187.52762,189.356895 189.311819,183.461281 190.180659,178 L197.255465,180.885776 L207.402227,178 C210.567288,181.599481 213.158255,184.702435 215.175205,187.308956 C217.192156,189.915477 218.759148,192.211663 219.876228,194.197583 C220.993308,196.183504 221.769047,197.983217 222.203467,199.596778 C222.637887,201.210338 222.855094,202.792845 222.855094,204.344345 Z M212.429063,205.182151 C212.429063,202.389451 211.296485,199.115834 209.031294,195.361203 C206.766104,191.606572 203.585576,187.495157 199.489615,183.026836 C198.248414,188.115758 196.557304,193.344236 194.416234,198.712427 C192.275163,204.080618 189.715226,209.216008 186.736345,214.118749 C188.908446,215.359949 191.173602,216.321865 193.531883,217.004525 C195.890164,217.687186 197.813995,218.02851 199.303436,218.02851 C200.854936,218.02851 202.406413,217.7027 203.957914,217.05107 C205.509414,216.39944 206.921258,215.499583 208.193488,214.351473 C209.465719,213.203363 210.489694,211.838063 211.265444,210.255532 C212.041194,208.673002 212.429063,206.981892 212.429063,205.182151 Z M261.952709,194.011404 C261.456229,195.004364 261.021815,195.857677 260.649455,196.571367 C260.277095,197.285057 259.93577,197.967707 259.62547,198.619337 C259.31517,199.270968 259.004874,199.938103 258.694574,200.620763 C258.384274,201.303423 258.042949,202.079162 257.670589,202.948002 L250.688872,202.110196 C250.006212,202.482556 249.277018,203.118662 248.501268,204.018532 C247.725517,204.918402 246.996323,205.957892 246.313663,207.137032 C245.631003,208.316172 245.010412,209.557354 244.451872,210.860614 C243.893332,212.163875 243.489948,213.405056 243.241708,214.584197 C242.745227,216.818357 242.279784,218.633586 241.845364,220.029936 C241.410944,221.426286 240.97653,222.51232 240.54211,223.288071 C240.10769,224.063821 239.673277,224.591323 239.238856,224.870593 C238.804436,225.149863 238.370023,225.289496 237.935603,225.289496 C237.563243,225.289496 237.051255,224.994715 236.399625,224.405145 C235.747995,223.815575 235.111889,223.132925 234.491289,222.357175 C233.870689,221.581425 233.327672,220.774657 232.862222,219.936846 C232.396772,219.099036 232.16405,218.400872 232.16405,217.842331 C232.16405,216.787311 232.381257,215.825395 232.815677,214.956555 C233.250097,214.087715 234.087895,212.908592 235.329095,211.419152 C235.825575,210.860612 236.182415,210.131417 236.399625,209.231547 C236.616835,208.331677 236.725438,206.981892 236.725438,205.182151 C236.725438,202.513571 236.663379,200.20187 236.539259,198.246979 C236.415139,196.292089 236.259992,194.725097 236.073811,193.545956 L245.568947,191.218717 C245.879247,195.376739 245.568951,199.410579 244.638051,203.32036 C246.065431,201.0862 247.353157,199.239942 248.501268,197.781531 C249.649378,196.323121 250.719897,195.159513 251.712857,194.290673 C252.705818,193.421833 253.636704,192.801242 254.505544,192.428882 C255.374384,192.056522 256.243212,191.870344 257.112052,191.870344 C257.670592,191.870344 258.399786,192.056522 259.299657,192.428882 C260.199527,192.801242 261.083869,193.328744 261.952709,194.011404 Z M306.263339,200.620763 C306.263339,202.730803 305.766866,204.763239 304.773906,206.718129 C303.780946,208.67302 302.49322,210.534792 300.910689,212.303503 C299.328159,214.072213 297.559475,215.685749 295.604585,217.14416 C293.649694,218.60257 291.694833,219.843752 289.739942,220.867742 C287.785052,221.891732 285.923279,222.6985 284.154569,223.288071 C282.385858,223.877641 280.942985,224.172421 279.825904,224.172421 C278.522644,224.172421 277.203888,223.846611 275.869598,223.194981 C274.535308,222.543351 273.309641,221.736583 272.19256,220.774652 C271.07548,219.812722 270.175623,218.757718 269.492963,217.609607 C268.810303,216.461497 268.468978,215.359948 268.468978,214.304928 C268.468978,212.256948 269.011995,210.162453 270.098045,208.021383 C271.184096,205.880312 272.626969,203.847877 274.42671,201.924017 C276.22645,200.000156 278.2744,198.278017 280.570621,196.757546 C282.866841,195.237076 285.256116,194.073468 287.738517,193.266688 L290.903562,195.500837 C292.827422,195.004357 294.394414,194.600973 295.604585,194.290673 C296.814755,193.980373 297.792186,193.747651 298.536906,193.592501 C299.281626,193.437351 299.871187,193.344263 300.305607,193.313232 C300.740027,193.282202 301.143412,193.266688 301.515772,193.266688 C303.067272,193.266688 304.246395,193.949338 305.053175,195.314658 C305.859955,196.679978 306.263339,198.448662 306.263339,200.620763 Z M295.46495,203.878897 C295.46495,203.010057 295.278773,202.048141 294.906413,200.993121 C294.534053,199.938101 294.03758,198.883096 293.41698,197.828076 L291.36901,197.828076 C289.445149,198.883096 287.72301,200.139793 286.202539,201.598203 C284.682069,203.056614 283.378828,204.577061 282.292778,206.159592 C281.206727,207.742122 280.384444,209.340144 279.825904,210.953704 C279.267364,212.567264 278.988098,214.056682 278.988098,215.422003 C278.988098,215.794363 279.003613,216.135688 279.034643,216.445988 C279.065673,216.756288 279.143247,217.159672 279.267367,217.656152 L281.315337,218.400869 C283.239198,217.594089 285.069941,216.647687 286.807621,215.561637 C288.545302,214.475587 290.050235,213.296464 291.322465,212.024234 C292.594695,210.752004 293.603155,209.433248 294.347876,208.067928 C295.092596,206.702607 295.46495,205.306278 295.46495,203.878897 Z M361,200.341494 C361,203.568615 360.022569,206.60951 358.067679,209.464271 C356.112788,212.319032 353.087408,215.235809 348.991447,218.21469 C347.998487,218.95941 346.896938,219.64206 345.686768,220.26266 C344.476597,220.88326 343.297475,221.441792 342.149364,221.938272 C341.001254,222.434752 339.930735,222.822621 338.937774,223.101891 C337.944814,223.381162 337.169076,223.520794 336.610535,223.520794 C335.617575,223.520794 334.717718,223.17947 333.910938,222.496809 C333.104158,221.814149 332.700774,221.038411 332.700774,220.16957 C332.700774,219.73515 332.855922,219.316251 333.166222,218.912861 C333.476522,218.509471 334.050568,218.168146 334.888379,217.888876 C335.726189,217.609606 336.874282,217.407914 338.332692,217.283794 C339.791103,217.159674 341.66839,217.128644 343.964611,217.190704 C345.205811,215.701264 346.260815,214.335964 347.129656,213.094764 C347.998496,211.853564 348.743205,210.674441 349.363805,209.557361 C349.984405,208.44028 350.511907,207.292187 350.946328,206.113047 C351.380748,204.933907 351.784132,203.630666 352.156492,202.203285 L349.177626,199.503688 C346.384925,200.869009 343.949106,202.342912 341.870096,203.925442 C339.791085,205.507973 337.898283,207.41629 336.191632,209.65045 C334.484982,211.884611 332.871446,214.568666 331.350975,217.702697 C329.830505,220.836728 328.201454,224.668876 326.463774,229.199258 C324.788153,233.605519 323.081528,235.808616 321.343848,235.808616 C320.661188,235.808616 319.947508,235.482806 319.202788,234.831176 C318.458068,234.179546 317.496152,233.046967 316.317012,231.433407 C315.199931,229.819847 314.641399,228.547635 314.641399,227.616735 C314.641399,226.685835 315.137872,225.692889 316.130832,224.637869 C317.868513,222.714009 319.295872,221.022899 320.412952,219.564488 C321.530032,218.106078 322.647096,216.477027 323.764176,214.677286 C324.198596,213.932566 324.570951,213.110283 324.881251,212.210413 C325.191551,211.310543 325.439787,210.146935 325.625967,208.719555 C325.812148,207.292174 325.936266,205.52349 325.998326,203.41345 C326.060386,201.303409 326.060386,198.665898 325.998326,195.500837 L336.796715,193.732136 C336.610535,195.655996 336.408843,197.471224 336.191632,199.177875 C335.974422,200.884525 335.648612,202.823872 335.214192,204.995972 C339.310153,200.837951 342.878551,197.828085 345.919491,195.966285 C348.960432,194.104484 351.535884,193.173598 353.645925,193.173598 C354.266525,193.173598 354.995719,193.37529 355.833529,193.77868 C356.67134,194.18207 357.478108,194.709573 358.253858,195.361203 C359.029608,196.012833 359.681229,196.773057 360.208739,197.641897 C360.736249,198.510737 361,199.410594 361,200.341494 Z" id="Drop" stroke-width="3"></path>
                </g>
            </g>
        </g>
    </g>
</svg>