<?xml version="1.0" encoding="UTF-8"?>
<svg width="800px" height="376px" viewBox="0 0 800 376" version="1.1" xmlns="http://www.w3.org/2000/svg" xmlns:xlink="http://www.w3.org/1999/xlink">
    <!-- Generator: Sketch 49.3 (51167) - http://www.bohemiancoding.com/sketch -->
    <title>wall</title>
    <desc>Created with Sketch.</desc>
    <defs></defs>
    <g id="Screens" stroke="none" stroke-width="1" fill="none" fill-rule="evenodd">
        <g id="Start">
            <g id="wall" transform="translate(-54.000000, -19.000000)">
                <rect id="shadow-(-wall-)" fill="#3F7762" x="54" y="19" width="800" height="376"></rect>
                <path d="M563.886719,377.613281 C626.756032,377.613281 700.332737,374.81197 766.460883,367.232478 C842.632227,358.501851 908.920707,343.431459 937.578125,319 C975.073358,287.033991 877.366251,232.69996 877.366251,189.760386 C877.366251,140.53153 865.645089,70.7675389 797.526968,37.1624973 C721.394796,-0.396155021 582.255037,1.00005227 460.846127,1.00005227 C377.238109,1.00005227 308.540341,-0.144839619 243.301667,19.0728502 C129.043736,52.7303929 0,158.863533 0,225.223155 C0,254.893685 12.6328125,307.974248 37.8984375,384.464844 C300.670054,379.897135 475.999481,377.613281 563.886719,377.613281 Z" id="bg-(-wall-)" fill="#629A7D"></path>
            </g>
        </g>
    </g>
</svg>